<?xml version="1.0"?>
<svg xmlns="http://www.w3.org/2000/svg" id="Outline" viewBox="0 0 512 512" width="512" height="512"><path d="M383.537,181.5a80,80,0,1,0-79.139-.037c-26.07,7.432-49.479,22.306-68.325,43.68a140.15,140.15,0,0,0-28.516-11.655,80,80,0,1,0-79.094.012A143.766,143.766,0,0,0,60.187,257C31.692,289.19,16,334.292,16,384a8,8,0,0,0,4.115,6.993C23.129,392.668,94.769,432,168,432a269.863,269.863,0,0,0,57.458-6.466,95.993,95.993,0,0,0,182.2-33.422c48.906-11.75,83.034-32.379,84.517-33.286A8,8,0,0,0,496,352c0-49.708-15.692-94.81-44.187-127A143.766,143.766,0,0,0,383.537,181.5ZM280,112a64,64,0,1,1,64,64A64.072,64.072,0,0,1,280,112ZM104,144a64,64,0,1,1,64,64A64.072,64.072,0,0,1,104,144ZM219.7,410.408A252.5,252.5,0,0,1,168,416c-59.383,0-119.8-28.588-135.947-36.81.964-43.875,15.122-83.351,40.114-111.581C97.062,239.487,131.1,224,168,224c47.507,0,89.391,25.567,113.745,68.889A96.039,96.039,0,0,0,219.7,410.408ZM312,464a80,80,0,1,1,80-80A80.091,80.091,0,0,1,312,464Zm95.631-88.365a96.018,96.018,0,0,0-109.765-86.592c-12.1-22.946-28.535-41.682-47.973-55.335C274.629,206.747,307.719,192,344,192c36.9,0,70.938,15.487,95.833,43.609,25.029,28.273,39.192,67.82,40.119,111.776A319.106,319.106,0,0,1,407.631,375.635Z"/><path d="M352,376H320V344a8,8,0,0,0-16,0v32H272a8,8,0,0,0,0,16h32v32a8,8,0,0,0,16,0V392h32a8,8,0,0,0,0-16Z"/></svg>
