<svg xmlns="http://www.w3.org/2000/svg" xmlns:xlink="http://www.w3.org/1999/xlink" viewBox="0 0 512 512"><defs><linearGradient id="linear-gradient" x1="513.33" y1="-117.73" x2="130.77" y2="231.94" gradientUnits="userSpaceOnUse"><stop offset="0" stop-color="#70fbe6"/><stop offset="1" stop-color="#10a5fb"/></linearGradient><linearGradient id="linear-gradient-2" x1="246.4" y1="137.07" x2="270.37" y2="-11.3" gradientUnits="userSpaceOnUse"><stop offset="0" stop-color="#f2f2f2" stop-opacity="0"/><stop offset="1" stop-color="#f2f2f2" stop-opacity="0.6"/></linearGradient><linearGradient id="linear-gradient-3" x1="611.63" y1="64.19" x2="196.18" y2="252.87" xlink:href="#linear-gradient"/><linearGradient id="linear-gradient-4" x1="485.53" y1="174.6" x2="217.22" y2="377.13" xlink:href="#linear-gradient"/><linearGradient id="linear-gradient-5" x1="452.71" y1="174.43" x2="113.43" y2="411.58" xlink:href="#linear-gradient"/><linearGradient id="linear-gradient-6" x1="371.01" y1="-11.31" x2="40.38" y2="310.67" xlink:href="#linear-gradient"/></defs><title>JustSplit_logo</title><g style="isolation:isolate"><g id="Layer_13" data-name="Layer 13"><path d="M57.2,109.85c-1.64.6-3.26,1.29-4.87,1.93A23.65,23.65,0,0,1,57.2,109.85Z" style="fill:none"/><path d="M487.28,60.21c-2.51-1.07-5.1-2.05-7.61-3.06A25.38,25.38,0,0,1,487.28,60.21Z" style="fill:none"/><path d="M493,157.58v.29a.65.65,0,0,0,0-.2v-.06Z" style="fill:none"/><path d="M487.28,60.21c-2.51-1.07-5.1-2.05-7.61-3.06A25.38,25.38,0,0,1,487.28,60.21Z" style="fill:none"/><path d="M500.15,83.14V84A375.18,375.18,0,0,1,493,157.26v.32l0,0v.06a.65.65,0,0,1,0,.2v1.24a25.73,25.73,0,0,1-2.16,9.81v0a26.43,26.43,0,0,1-24.26,15.92c-.35,0-.67,0-1,0h-.06c-4.85-1.58-10.13-3.55-15.18-5.57-1.81-.63-3.63-1.26-5.48-1.87-1.07-.38-2.13-.75-3.2-1.1-1.88-.63-3.78-1.27-5.68-1.87-.44-.15-.84-.26-1.27-.41-1.71-.54-3.41-1.09-5.11-1.61-2-.64-3.92-1.24-5.91-1.82l-.49-.14q-5.37-1.6-10.74-3.12c-2.51-.72-5.05-1.41-7.58-2.08s-5.14-1.35-7.71-2c-1.64-.4-3.29-.83-4.93-1.21l-1.24-.29c-.81-.2-1.59-.4-2.4-.57-3.31-.78-6.66-1.56-10-2.28l-.66-.15c-2.08-.46-4.16-.89-6.26-1.33l-1.82-.34c-1.3-.29-2.6-.55-3.89-.78s-2.6-.52-3.9-.75l-3.69-.69c-1.21-.23-2.45-.46-3.7-.67-.95-.17-1.9-.34-2.85-.49-2-.34-4-.69-6-1l-3.78-.6c-1.82-.29-3.64-.58-5.46-.84l-.66-.09c-1-.14-2.08-.31-3.12-.46-2.25-.32-4.52-.6-6.8-.89h0a611.79,611.79,0,0,0-251.84,20.6h0c-7.73,2.3-15.41,4.79-23,7.41q-11.18,3.81-22.1,8.08A26.33,26.33,0,0,1,23,176.56a.12.12,0,0,0,0-.08c-.41-1.65-.84-3.32-1.25-5a.55.55,0,0,1,0-.18l-.09-.43a374.59,374.59,0,0,1-9.41-63C11.79,100,11.53,92,11.53,84v-.69c0-.47,0-.93,0-1.36,0-.17,0-.35,0-.52.06-.63.12-1.27.2-1.87A26.33,26.33,0,0,1,25.61,60l.18-.09C27.4,59.26,29,58.56,30.66,58c.06,0,.09-.06.15-.06Q51.52,49.55,73,42.78a610.6,610.6,0,0,1,371.37,1.65c11.95,3.86,23.66,8.1,35.26,12.69l0,0c2.51,1,5.1,2,7.61,3.06,0,0,0,0,.06,0s0,0,.06,0l0,0a26.56,26.56,0,0,1,12.34,18.15,24.61,24.61,0,0,1,.35,3v.06C500.15,82.08,500.15,82.6,500.15,83.14Z" style="fill:url(#linear-gradient)"/><path d="M499.77,78.44a30.73,30.73,0,0,1-4.32.29c-.38,0-.72,0-1.1,0h-.09c-5.33-1.59-11.16-3.55-16.76-5.57-2-.63-4-1.27-6.06-1.87-1.18-.38-2.33-.75-3.52-1.1-2.07-.63-4.18-1.27-6.29-1.87l-1.41-.41c-1.88-.55-3.75-1.09-5.63-1.61-2.16-.64-4.32-1.24-6.55-1.82-.17-.06-.34-.09-.51-.15q-5.94-1.59-11.86-3.11-4.2-1.08-8.4-2.08c-2.83-.69-5.68-1.35-8.51-2-1.82-.4-3.63-.84-5.45-1.21L412,55.62c-.89-.2-1.76-.4-2.65-.58-3.67-.78-7.36-1.55-11.08-2.28l-.72-.14c-2.31-.46-4.59-.89-6.93-1.33l-2-.34c-1.44-.29-2.88-.55-4.3-.78s-2.88-.52-4.32-.75l-4.07-.69c-1.33-.24-2.71-.47-4.07-.67-1.07-.17-2.11-.34-3.17-.49-2.2-.35-4.39-.69-6.61-1L357.89,46c-2-.28-4-.57-6-.83l-.75-.09c-1.13-.14-2.28-.32-3.44-.46-2.48-.32-5-.61-7.53-.89h0A744.8,744.8,0,0,0,61.88,64.3h0Q49,67.77,36.4,71.72,24.07,75.53,12,79.8c-.05-.06-.14-.12-.2-.2A26.33,26.33,0,0,1,25.61,60l.18-.09A23.43,23.43,0,0,1,30.66,58c.06,0,.09-.06.15-.06Q51.52,49.55,73,42.78a610.6,610.6,0,0,1,371.37,1.65c11.95,3.86,23.66,8.1,35.26,12.69l0,0c2.51,1,5.1,2,7.61,3.06,0,0,0,0,.06,0s0,0,.06,0l0,0A26.56,26.56,0,0,1,499.77,78.44Z" style="opacity:0.87;mix-blend-mode:soft-light;fill:url(#linear-gradient-2)"/><path d="M57.2,109.85c-1.64.6-3.26,1.29-4.87,1.93A23.65,23.65,0,0,1,57.2,109.85Z" style="fill:none"/><path d="M487.28,60.21c-2.51-1.07-5.1-2.05-7.61-3.06A25.38,25.38,0,0,1,487.28,60.21Z" style="fill:none"/><path d="M493,157.58v.29a.65.65,0,0,0,0-.2v-.06Z" style="fill:none"/><path d="M57.2,109.85c-1.64.6-3.26,1.29-4.87,1.93A23.65,23.65,0,0,1,57.2,109.85Z" style="fill:none"/><path d="M487.28,60.21c-2.51-1.07-5.1-2.05-7.61-3.06A25.38,25.38,0,0,1,487.28,60.21Z" style="fill:none"/><path d="M57.2,109.85c-1.64.6-3.26,1.29-4.87,1.93A23.65,23.65,0,0,1,57.2,109.85Z" style="fill:none"/><path d="M487.28,60.21c-2.51-1.07-5.1-2.05-7.61-3.06A25.38,25.38,0,0,1,487.28,60.21Z" style="fill:none"/><path d="M493,157.58v.29a.65.65,0,0,0,0-.2v-.06Z" style="fill:none"/><path d="M449.49,279.39c-2.08,1.15-4.16,2.28-6.26,3.37a373.34,373.34,0,0,1-175.94,43.77c-8,0-15.89-.26-23.74-.72A376.42,376.42,0,0,0,87,208.07l-.09,0c-.55-.23-1.12-.43-1.67-.66-10.85-4.27-22-8.08-33.3-11.34-2.33-.67-4.7-1.33-7.06-2s-4.62-1.22-7-1.79a26.14,26.14,0,0,1-8.91-6c-.09-.08-.18-.2-.26-.28l.26-.09q11-4.29,22.1-8.08c7.61-2.62,15.29-5.11,23-7.41h0A611.79,611.79,0,0,1,326,149.85h0c3.83,2.45,7.61,5,11.36,7.58h0l4.76,3.38A377.21,377.21,0,0,1,447.44,275.87C448.1,277.05,448.8,278.2,449.49,279.39Z" style="fill:url(#linear-gradient-3)"/><path d="M493,157.58v.29a.65.65,0,0,0,0-.2v-.06Z" style="fill:none"/><path d="M57.2,109.85c-1.64.6-3.26,1.29-4.87,1.93A23.65,23.65,0,0,1,57.2,109.85Z" style="fill:none"/><path d="M91.51,339.34A27,27,0,0,1,87,330.19C88.45,333.28,90,336.31,91.51,339.34Z" style="fill:none"/><path d="M449.49,279.39v0q-4,13.06-8.92,25.73A375.54,375.54,0,0,1,333.74,455.38q-10,8.47-20.54,16.3a377,377,0,0,1-54.79,33.55,373.24,373.24,0,0,1-76.08-50.52A375.81,375.81,0,0,1,91.51,339.34c-1.56-3-3.06-6.06-4.53-9.15a26.68,26.68,0,0,1-1-7.38,27.14,27.14,0,0,1,2.42-11.28c.26-.58.55-1.13.84-1.68a27.36,27.36,0,0,1,24.12-14.42,27.82,27.82,0,0,1,5.42.52,27.5,27.5,0,0,1,9.67,4,372.75,372.75,0,0,0,115.11,25.85c7.85.46,15.78.72,23.74.72a373.34,373.34,0,0,0,175.94-43.77C445.33,281.67,447.41,280.54,449.49,279.39Z" style="fill:url(#linear-gradient-4)"/><path d="M449.49,279.39v0q-4,13.06-8.92,25.73a373.43,373.43,0,0,1-180.08,46A373.47,373.47,0,0,1,89.23,309.85a27.36,27.36,0,0,1,24.12-14.42,27.82,27.82,0,0,1,5.42.52,27.5,27.5,0,0,1,9.67,4,372.75,372.75,0,0,0,115.11,25.85c7.85.46,15.78.72,23.74.72a373.34,373.34,0,0,0,175.94-43.77C445.33,281.67,447.41,280.54,449.49,279.39Z" style="opacity:0.5;mix-blend-mode:soft-light;fill:url(#linear-gradient-5)"/><path d="M337.37,157.43c-69.64-7.81-165.48,4-250.39,50.64l-.09,0c-.55-.23-1.12-.43-1.67-.66-10.85-4.27-22-8.08-33.3-11.34-2.33-.67-4.7-1.33-7.06-2s-4.62-1.22-7-1.79a26.14,26.14,0,0,1-8.91-6c-.09-.08-.18-.2-.26-.28l.26-.09q11-4.29,22.1-8.08c7.61-2.62,15.29-5.11,23-7.41h0A611.79,611.79,0,0,1,326,149.85h0C329.84,152.3,333.62,154.84,337.37,157.43Z" style="opacity:0.5;mix-blend-mode:multiply;fill:url(#linear-gradient-6)"/></g></g></svg>