<svg id="Layer_1" height="512" viewBox="0 0 128 128" width="512" xmlns="http://www.w3.org/2000/svg" data-name="Layer 1"><path d="m112.654 4.75h-97.308a1.75 1.75 0 0 0 -1.746 1.75v115a1.75 1.75 0 0 0 1.75 1.75h97.308a1.75 1.75 0 0 0 1.75-1.75v-115a1.75 1.75 0 0 0 -1.754-1.75zm-1.75 115h-93.804v-111.5h93.8z"/><path d="m24.192 43.635h39.808a1.75 1.75 0 0 0 1.75-1.75v-17.693a1.751 1.751 0 0 0 -1.75-1.75h-39.808a1.751 1.751 0 0 0 -1.75 1.75v17.693a1.75 1.75 0 0 0 1.75 1.75zm1.75-17.693h36.308v14.193h-36.308z"/><path d="m77.5 105.81h26.336a1.75 1.75 0 0 0 1.75-1.75v-17.693a1.749 1.749 0 0 0 -1.75-1.75h-26.336a1.75 1.75 0 0 0 -1.75 1.75v17.693a1.751 1.751 0 0 0 1.75 1.75zm1.75-17.693h22.836v14.193h-22.836z"/><path d="m77.5 74.6h26.308a1.75 1.75 0 0 0 1.75-1.75v-48.812a1.75 1.75 0 0 0 -1.75-1.75h-26.308a1.75 1.75 0 0 0 -1.75 1.75v48.808a1.75 1.75 0 0 0 1.75 1.754zm1.75-48.808h22.808v45.308h-22.808z"/><path d="m63.9 51.945a4.643 4.643 0 0 0 -6.446.858l-25.38 32.197a10.655 10.655 0 0 0 -7.608 5.032c-2.315 3.814-2.5 9.2-.482 14.4a1.757 1.757 0 0 0 1.316 1.081 1.766 1.766 0 0 0 1.622-.545 7.824 7.824 0 0 1 3.607-1.91c5.5-1.21 8.9-3.114 10.408-5.82a7.162 7.162 0 0 0 .563-5.438l23.43-33.432a4.642 4.642 0 0 0 -1.03-6.423zm-26.019 43.6c-.961 1.728-3.762 3.147-8.177 4.121a13.464 13.464 0 0 0 -3.152 1.271c-.818-3.409-.509-6.748.909-9.085a7.159 7.159 0 0 1 5.105-3.4l.8.6 4.722 3.511a3.816 3.816 0 0 1 -.21 2.981zm24.19-39.186-22.889 32.654-2.909-2.163-.755-.561 24.682-31.32a1.164 1.164 0 0 1 1.868 1.389z"/></svg>