<svg id="Capa_1" enable-background="new 0 0 512 512" height="512" viewBox="0 0 512 512" width="512" xmlns="http://www.w3.org/2000/svg"><g><path d="m487.302 272.532c-4.15 0-7.515 3.365-7.515 7.515v203.081c0 7.633-6.21 13.842-13.843 13.842h-176.97c-7.633 0-13.842-6.21-13.842-13.842v-19.973c0-4.15-3.365-7.515-7.515-7.515s-7.515 3.365-7.515 7.515v19.973c0 5.013 1.286 9.73 3.543 13.842h-228.927c-1.381 0-2.505-1.124-2.505-2.505v-181.298c0-4.15-3.365-7.515-7.515-7.515s-7.515 3.364-7.515 7.515v181.299c0 9.668 7.866 17.534 17.534 17.534h431.226c15.92 0 28.872-12.952 28.872-28.872v-203.081c.001-4.15-3.363-7.515-7.513-7.515z"/><path d="m465.944 161.382h-72.643v-60.748c.004-1.974-.807-3.922-2.202-5.315l-93.117-93.117c-1.393-1.395-3.341-2.206-5.315-2.202h-257.949c-9.668 0-17.534 7.866-17.534 17.534v265.574c0 4.15 3.365 7.515 7.515 7.515s7.515-3.365 7.515-7.515v-265.574c0-1.381 1.124-2.505 2.505-2.505h250.434v65.565c0 15.193 12.361 27.554 27.554 27.554h65.565v53.233h-89.297c-15.92 0-28.872 12.952-28.872 28.872v1.176h-119.08c-4.15 0-7.515 3.364-7.515 7.515 0 4.15 3.365 7.515 7.515 7.515h119.08v51.044h-119.08c-4.15 0-7.515 3.365-7.515 7.515s3.365 7.515 7.515 7.515h119.08v51.044h-119.08c-4.15 0-7.515 3.365-7.515 7.515s3.365 7.515 7.515 7.515h119.08v51.045h-119.08c-4.15 0-7.515 3.364-7.515 7.515s3.365 7.515 7.515 7.515h119.08v28.416c0 4.15 3.364 7.515 7.515 7.515s7.515-3.365 7.515-7.515v-242.845c0-7.633 6.21-13.842 13.842-13.842h176.97c7.633 0 13.843 6.21 13.843 13.842v59.735c0 4.15 3.365 7.515 7.515 7.515s7.515-3.364 7.515-7.515v-59.735c-.002-15.919-12.954-28.871-28.874-28.871zm-165.762-80.788v-54.937l67.462 67.462h-54.938c-6.906 0-12.524-5.618-12.524-12.525z"/><path d="m458.034 213.563c0-9.668-7.866-17.534-17.534-17.534h-124.772c-9.668 0-17.534 7.866-17.534 17.534v42.43c0 9.668 7.866 17.534 17.534 17.534h124.772c9.668 0 17.534-7.866 17.534-17.534zm-15.029 42.429c0 1.381-1.124 2.505-2.505 2.505h-124.772c-1.381 0-2.505-1.124-2.505-2.505v-42.43c0-1.381 1.124-2.505 2.505-2.505h124.772c1.381 0 2.505 1.124 2.505 2.505z"/><path d="m298.194 335.241c0 9.251 7.527 16.778 16.778 16.778h14.309c9.251 0 16.778-7.527 16.778-16.778v-14.309c0-9.252-7.527-16.778-16.778-16.778h-14.309c-9.251 0-16.778 7.527-16.778 16.778zm15.029-14.308c0-.964.785-1.749 1.749-1.749h14.309c.964 0 1.749.785 1.749 1.749v14.309c0 .964-.785 1.749-1.749 1.749h-14.309c-.964 0-1.749-.785-1.749-1.749z"/><path d="m402.047 320.933c0-9.252-7.527-16.778-16.778-16.778h-14.309c-9.251 0-16.778 7.527-16.778 16.778v14.309c0 9.251 7.527 16.778 16.778 16.778h14.309c9.251 0 16.778-7.527 16.778-16.778zm-15.03 14.308c0 .964-.785 1.749-1.749 1.749h-14.308c-.964 0-1.749-.785-1.749-1.749v-14.309c0-.964.785-1.749 1.749-1.749h14.309c.964 0 1.749.785 1.749 1.749v14.309z"/><path d="m458.034 320.933c0-9.252-7.527-16.778-16.778-16.778h-14.309c-9.251 0-16.778 7.527-16.778 16.778v14.309c0 9.251 7.527 16.778 16.778 16.778h14.309c9.251 0 16.778-7.527 16.778-16.778zm-15.029 14.308c0 .964-.785 1.749-1.749 1.749h-14.309c-.964 0-1.749-.785-1.749-1.749v-14.309c0-.964.785-1.749 1.749-1.749h14.309c.964 0 1.749.785 1.749 1.749z"/><path d="m298.194 396.512c0 9.251 7.527 16.778 16.778 16.778h14.309c9.251 0 16.778-7.527 16.778-16.778v-14.309c0-9.251-7.527-16.778-16.778-16.778h-14.309c-9.251 0-16.778 7.526-16.778 16.778zm15.029-14.309c0-.964.785-1.749 1.749-1.749h14.309c.964 0 1.749.784 1.749 1.749v14.309c0 .964-.785 1.749-1.749 1.749h-14.309c-.964 0-1.749-.785-1.749-1.749z"/><path d="m402.047 382.203c0-9.251-7.527-16.778-16.778-16.778h-14.309c-9.251 0-16.778 7.526-16.778 16.778v14.309c0 9.251 7.527 16.778 16.778 16.778h14.309c9.251 0 16.778-7.527 16.778-16.778zm-15.03 14.309c0 .964-.785 1.749-1.749 1.749h-14.308c-.964 0-1.749-.785-1.749-1.749v-14.309c0-.964.785-1.749 1.749-1.749h14.309c.964 0 1.749.784 1.749 1.749v14.309z"/><path d="m298.194 457.782c0 9.251 7.527 16.778 16.778 16.778h14.309c9.251 0 16.778-7.527 16.778-16.778v-14.309c0-9.251-7.527-16.778-16.778-16.778h-14.309c-9.251 0-16.778 7.526-16.778 16.778zm15.029-14.308c0-.964.785-1.749 1.749-1.749h14.309c.964 0 1.749.784 1.749 1.749v14.309c0 .964-.785 1.749-1.749 1.749h-14.309c-.964 0-1.749-.785-1.749-1.749z"/><path d="m385.268 426.696h-14.308c-9.251 0-16.778 7.526-16.778 16.778v14.309c0 9.251 7.527 16.778 16.778 16.778h14.309c9.251 0 16.778-7.527 16.778-16.778v-14.309c0-9.252-7.527-16.778-16.779-16.778zm1.749 31.086c0 .964-.785 1.749-1.749 1.749h-14.308c-.964 0-1.749-.785-1.749-1.749v-14.309c0-.964.785-1.749 1.749-1.749h14.309c.964 0 1.749.784 1.749 1.749v14.309z"/><path d="m439.837 365.425h-11.471c-10.034 0-18.197 8.163-18.197 18.197v72.742c0 10.034 8.163 18.197 18.197 18.197h11.471c10.034 0 18.197-8.163 18.197-18.197v-72.742c0-10.034-8.163-18.197-18.197-18.197zm3.168 90.939c0 1.747-1.421 3.168-3.168 3.168h-11.471c-1.747 0-3.168-1.421-3.168-3.168v-72.742c0-1.747 1.421-3.167 3.168-3.167h11.471c1.747 0 3.168 1.421 3.168 3.167z"/><path d="m77.208 140.385h29.997c4.15 0 7.515-3.364 7.515-7.515 0-4.15-3.364-7.515-7.515-7.515h-29.997c-4.15 0-7.515 3.365-7.515 7.515s3.365 7.515 7.515 7.515z"/><path d="m141.022 140.385h144.63c4.15 0 7.515-3.364 7.515-7.515 0-4.15-3.365-7.515-7.515-7.515h-144.63c-4.15 0-7.515 3.365-7.515 7.515.001 4.15 3.365 7.515 7.515 7.515z"/><path d="m77.208 206.458h29.997c4.15 0 7.515-3.365 7.515-7.515s-3.364-7.515-7.515-7.515h-29.997c-4.15 0-7.515 3.364-7.515 7.515s3.365 7.515 7.515 7.515z"/><path d="m77.208 272.532h29.997c4.15 0 7.515-3.365 7.515-7.515s-3.364-7.515-7.515-7.515h-29.997c-4.15 0-7.515 3.365-7.515 7.515s3.365 7.515 7.515 7.515z"/><path d="m77.208 338.606h29.997c4.15 0 7.515-3.365 7.515-7.515s-3.364-7.515-7.515-7.515h-29.997c-4.15 0-7.515 3.365-7.515 7.515 0 4.151 3.365 7.515 7.515 7.515z"/><path d="m77.208 404.68h29.997c4.15 0 7.515-3.364 7.515-7.515s-3.364-7.515-7.515-7.515h-29.997c-4.15 0-7.515 3.364-7.515 7.515s3.365 7.515 7.515 7.515z"/></g></svg>