<svg id="Capa_1" enable-background="new 0 0 509.619 509.619" height="512" viewBox="0 0 509.619 509.619" width="512" xmlns="http://www.w3.org/2000/svg"><path d="m389.293 326.094c1.055-4.497.453-9.327-1.886-13.487-1.95-3.478-4.905-6.197-8.552-7.866l-33.167-15.145c-4.458-2.036-9.58-2.059-14.051-.061-4.471 1.997-7.87 5.826-9.327 10.506l-1.053 3.382-9.259-4.633c-3.321-1.657-5.385-4.993-5.385-8.705v-36.045c21.061-11.083 36.428-31.559 40.498-55.829 18.956-2.235 33.711-18.391 33.711-37.937 0-6.803-1.795-13.191-4.925-18.73.031-.278.051-.559.051-.845v-118.25c.001-12.379-9.401-22.449-20.958-22.449h-173.65c-6.184 0-11.966 2.628-16.299 7.417-4.102 4.565-6.361 10.576-6.361 16.923 0 5.15-3.436 9.34-7.66 9.34h-5.38c-12.489 0-22.65 10.919-22.65 24.34v28.79c0 4.143 3.358 7.5 7.5 7.5s7.5-3.357 7.5-7.5v-28.79c0-5.15 3.432-9.34 7.65-9.34h5.38c12.495 0 22.66-10.919 22.66-24.34 0-2.64.895-5.09 2.502-6.879.832-.919 2.607-2.461 5.158-2.461h173.65c3.23 0 5.96 3.411 5.96 7.449v104.313c-3.968-2.18-8.364-3.669-13.025-4.321-.873-3.176-3.772-5.511-7.225-5.511-.296 0-2.557-.042-3.42.14-62.983 13.129-111.929-38.063-125.438-54.074-2.621-3.097-6.672-4.376-10.571-3.336-3.937 1.048-6.843 4.207-7.586 8.241-8.744 47.364-31.133 46.919-31.205 46.919-4.142 0-7.5 3.357-7.5 7.5v.288c-6.322 1.074-12.121 3.712-16.99 7.498v-9.295c0-4.143-3.358-7.5-7.5-7.5s-7.5 3.357-7.5 7.5v42.09c0 1.012.203 1.976.567 2.857 2.417 16.743 15.727 30.003 32.492 32.35 4.07 24.468 19.622 45.089 40.92 56.138v35.837c0 3.713-2.066 7.053-5.385 8.712l-.65.324c-1.599-4.254-4.817-7.722-8.99-9.585-4.471-1.996-9.587-1.972-14.033.063l-33.185 15.148c-3.638 1.665-6.589 4.381-8.524 7.834-2.134 3.779-2.832 8.109-2.161 12.241-20.018 6.569-37.98 18.982-51.248 35.57-15.375 19.221-23.842 43.389-23.842 68.051v60.851c0 11.21 9.12 20.329 20.33 20.329h315.53c4.142 0 7.5-3.357 7.5-7.5s-3.358-7.5-7.5-7.5h-41.864l49.457-101.034c3.734-7.62 1.87-16.829-4.531-22.393l-15.458-13.443c-1.472-1.28-1.721-3.441-.585-5.018l9.719-13.443c37.999 12.735 64.121 48.671 64.121 89.151v60.851c0 2.938-2.391 5.329-5.33 5.329h-21.53c-4.142 0-7.5 3.357-7.5 7.5s3.358 7.5 7.5 7.5h21.53c11.21 0 20.33-9.119 20.33-20.329v-60.851c0-45.873-28.928-86.732-71.377-102.347zm-137.403 168.525-41.44-133.027c13.787 5.288 27.518 7.944 41.156 7.944 17.976 0 35.79-4.594 53.349-13.772l-43.249 138.855zm113.933-334.345c0 10.873-7.516 20.019-17.624 22.527v-45.054c10.108 2.508 17.624 11.655 17.624 22.527zm-227.666 0c0-10.555 7.129-19.515 16.823-22.306v44.616c-9.701-2.782-16.823-11.727-16.823-22.31zm31.823 25.066v-56.338c9.922-2.442 27.489-12.135 36.549-49.415 17.922 19.193 58.081 54.63 110.13 54.626 5.387-.001 10.908-.39 16.54-1.207v52.334c0 34.512-28.073 62.59-62.58 62.59h-38.05c-34.512 0-62.589-28.078-62.589-62.59zm28.305 126.874c8.44-4.221 13.683-12.701 13.683-22.132v-29.95c6.565 1.811 13.468 2.798 20.602 2.798h38.05c7.276 0 14.312-1.029 20.994-2.911v30.067c0 9.435 5.244 17.913 13.68 22.123l11.444 5.726-5.083 16.321c-35.273 23.977-70.369 26.716-107.119 8.35l-9.035-29.003zm-59.011 7.719c.387-.69.957-1.212 1.687-1.546l33.185-15.148c.695-.316 1.299-.179 1.683-.008.316.141.883.493 1.125 1.269l59.226 190.12h-48.837l-52.683-107.623c-.746-1.529-.374-3.376.898-4.483l15.467-13.443c7.36-6.397 8.605-17.196 2.889-25.128l-14.433-19.962c-1.033-1.426-.79-3.016-.207-4.048zm-75.325 169.357v-60.851c0-42.075 27.457-78.463 67.353-90.169l10.448 14.45c1.145 1.59.901 3.751-.567 5.027l-15.473 13.449c-6.383 5.562-8.247 14.763-4.528 22.385l49.459 101.037h-101.361c-2.939.001-5.331-2.389-5.331-5.328zm314.081-106.777c1.278 1.11 1.649 2.949.902 4.474l-52.687 107.633h-48.827l55.844-179.277 3.373-10.843c.229-.735.737-1.096 1.124-1.268.387-.174.997-.311 1.7.01l33.161 15.142c.923.423 1.437 1.082 1.709 1.567.57 1.014.811 2.604-.23 4.042l-14.43 19.959c-5.707 7.919-4.458 18.718 2.904 25.117z"/></svg>