<svg id="Capa_1" enable-background="new 0 0 512 512" height="512" viewBox="0 0 512 512" width="512" xmlns="http://www.w3.org/2000/svg"><g><path d="m126.536 178.086c22 0 39.898-17.898 39.898-39.899v-130.687c0-4.142-3.357-7.5-7.5-7.5s-7.5 3.358-7.5 7.5v53.8h-9.405v-33.604c0-15.272-12.425-27.696-27.696-27.696s-27.696 12.424-27.696 27.696v110.491c0 22.001 17.898 39.899 39.899 39.899zm24.899-39.898c0 13.729-11.169 24.899-24.898 24.899s-24.899-11.169-24.899-24.899v-61.888h49.798v61.888zm-37.102-123.188c7.001 0 12.696 5.695 12.696 12.696v33.604h-25.393v-33.604c.001-7.001 5.696-12.696 12.697-12.696z"/><path d="m91.005 409.893h132.1c4.143 0 7.5-3.358 7.5-7.5s-3.357-7.5-7.5-7.5h-132.1c-4.143 0-7.5 3.358-7.5 7.5s3.357 7.5 7.5 7.5z"/><path d="m91.005 348.18h329.99c4.143 0 7.5-3.358 7.5-7.5s-3.357-7.5-7.5-7.5h-329.99c-4.143 0-7.5 3.358-7.5 7.5s3.357 7.5 7.5 7.5z"/><path d="m91.005 284.465h329.99c4.143 0 7.5-3.358 7.5-7.5s-3.357-7.5-7.5-7.5h-329.99c-4.143 0-7.5 3.358-7.5 7.5s3.357 7.5 7.5 7.5z"/><path d="m91.005 220.751h329.99c4.143 0 7.5-3.358 7.5-7.5s-3.357-7.5-7.5-7.5h-329.99c-4.143 0-7.5 3.358-7.5 7.5s3.357 7.5 7.5 7.5z"/><path d="m446.386 61.3h-252.555c-4.143 0-7.5 3.358-7.5 7.5s3.357 7.5 7.5 7.5h252.555c13.061 0 23.687 10.625 23.687 23.686v275.318h-91.32c-16.749 0-30.375 13.626-30.375 30.375v91.321h-282.764c-13.061 0-23.687-10.625-23.687-23.687v-373.327c0-11.204 7.951-20.963 18.903-23.205 1.562-.319 3.172-.481 4.783-.481 4.143 0 7.5-3.358 7.5-7.5s-3.357-7.5-7.5-7.5c-2.618 0-5.238.264-7.789.786-17.903 3.664-30.897 19.603-30.897 37.9v373.328c0 21.332 17.354 38.687 38.687 38.687h290.263c1.989 0 3.896-.79 5.304-2.197l121.695-121.696c1.406-1.406 2.196-3.314 2.196-5.303v-282.819c0-21.332-17.354-38.686-38.686-38.686zm-67.634 329.004h80.714l-96.089 96.089v-80.714c0-8.478 6.897-15.375 15.375-15.375z"/></g></svg>