<?xml version="1.0" encoding="UTF-8" standalone="no"?>
<svg
   xmlns:dc="http://purl.org/dc/elements/1.1/"
   xmlns:cc="http://creativecommons.org/ns#"
   xmlns:rdf="http://www.w3.org/1999/02/22-rdf-syntax-ns#"
   xmlns:svg="http://www.w3.org/2000/svg"
   xmlns="http://www.w3.org/2000/svg"
   xmlns:sodipodi="http://sodipodi.sourceforge.net/DTD/sodipodi-0.dtd"
   xmlns:inkscape="http://www.inkscape.org/namespaces/inkscape"
   inkscape:version="1.0 (4035a4f, 2020-05-01)"
   sodipodi:docname="plus.svg"
   xml:space="preserve"
   style="enable-background:new 0 0 512 512;"
   viewBox="0 0 512 512"
   y="0px"
   x="0px"
   id="Capa_1"
   version="1.1"><metadata
   id="metadata996"><rdf:RDF><cc:Work
       rdf:about=""><dc:format>image/svg+xml</dc:format><dc:type
         rdf:resource="http://purl.org/dc/dcmitype/StillImage" /><dc:title></dc:title></cc:Work></rdf:RDF></metadata><defs
   id="defs994" /><sodipodi:namedview
   inkscape:current-layer="Capa_1"
   inkscape:window-maximized="0"
   inkscape:window-y="120"
   inkscape:window-x="474"
   inkscape:cy="254.24719"
   inkscape:cx="198.45158"
   inkscape:zoom="0.81933594"
   showgrid="false"
   id="namedview992"
   inkscape:window-height="775"
   inkscape:window-width="1422"
   inkscape:pageshadow="2"
   inkscape:pageopacity="0"
   guidetolerance="10"
   gridtolerance="10"
   objecttolerance="10"
   borderopacity="1"
   bordercolor="#666666"
   pagecolor="#ffffff" />
<g
   id="g959">
	<g
   id="g957">
		<path
   id="path955"
   d="M504.5,218.5h-211V7.5c0-4.143-3.357-7.5-7.5-7.5h-60c-4.143,0-7.5,3.357-7.5,7.5v211H7.5c-4.143,0-7.5,3.357-7.5,7.5v60    c0,4.143,3.357,7.5,7.5,7.5h45c4.143,0,7.5-3.357,7.5-7.5s-3.357-7.5-7.5-7.5H15v-45h211c4.143,0,7.5-3.357,7.5-7.5V15h45v211    c0,4.143,3.357,7.5,7.5,7.5h211v45H286c-4.143,0-7.5,3.357-7.5,7.5v211h-45V286c0-4.143-3.357-7.5-7.5-7.5H82.5    c-4.143,0-7.5,3.357-7.5,7.5s3.357,7.5,7.5,7.5h136v211c0,4.143,3.357,7.5,7.5,7.5h60c4.143,0,7.5-3.357,7.5-7.5v-211h211    c4.143,0,7.5-3.357,7.5-7.5v-60C512,221.857,508.643,218.5,504.5,218.5z" />
	</g>
</g>
<g
   id="g961">
</g>
<g
   id="g963">
</g>
<g
   id="g965">
</g>
<g
   id="g967">
</g>
<g
   id="g969">
</g>
<g
   id="g971">
</g>
<g
   id="g973">
</g>
<g
   id="g975">
</g>
<g
   id="g977">
</g>
<g
   id="g979">
</g>
<g
   id="g981">
</g>
<g
   id="g983">
</g>
<g
   id="g985">
</g>
<g
   id="g987">
</g>
<g
   id="g989">
</g>
<rect
   y="278.5676"
   x="37.960068"
   height="14.884219"
   width="64.563316"
   id="rect998"
   style="fill:#000000;fill-opacity:1;stroke-width:0" /></svg>
