<svg height="512" viewBox="0 0 128 128" width="512" xmlns="http://www.w3.org/2000/svg"><g><path d="m121.693 14.088h-22.429v-7.781a1.75 1.75 0 0 0 -1.75-1.75h-7.462a1.749 1.749 0 0 0 -1.75 1.75v7.781h-18.821v-7.781a1.749 1.749 0 0 0 -1.75-1.75h-7.462a1.749 1.749 0 0 0 -1.75 1.75v7.781h-18.819v-7.781a1.749 1.749 0 0 0 -1.75-1.75h-7.464a1.75 1.75 0 0 0 -1.75 1.75v7.781h-22.429a1.749 1.749 0 0 0 -1.75 1.75v105.855a1.749 1.749 0 0 0 1.75 1.75h115.386a1.749 1.749 0 0 0 1.75-1.75v-105.855a1.749 1.749 0 0 0 -1.75-1.75zm-29.893-6.031h3.962v15.562h-3.962zm-29.783 0h3.962v15.562h-3.96zm-29.783 0h3.966v15.562h-3.964zm-24.177 9.531h20.679v7.781a1.75 1.75 0 0 0 1.75 1.75h7.462a1.749 1.749 0 0 0 1.75-1.75v-7.781h18.821v7.781a1.749 1.749 0 0 0 1.75 1.75h7.462a1.749 1.749 0 0 0 1.75-1.75v-7.781h18.819v7.781a1.749 1.749 0 0 0 1.75 1.75h7.462a1.75 1.75 0 0 0 1.75-1.75v-7.781h20.679v20.025h-111.884zm0 102.355v-78.83h111.886v78.83z"/><path d="m27.66 49.015a8.033 8.033 0 1 0 8.033 8.033 8.041 8.041 0 0 0 -8.033-8.033zm0 12.566a4.533 4.533 0 1 1 4.533-4.533 4.537 4.537 0 0 1 -4.533 4.533z"/><path d="m51.887 49.015a8.033 8.033 0 1 0 8.033 8.033 8.042 8.042 0 0 0 -8.033-8.033zm0 12.566a4.533 4.533 0 1 1 4.533-4.533 4.538 4.538 0 0 1 -4.533 4.533z"/><path d="m76.113 49.015a8.033 8.033 0 1 0 8.033 8.033 8.042 8.042 0 0 0 -8.033-8.033zm0 12.566a4.533 4.533 0 1 1 4.533-4.533 4.537 4.537 0 0 1 -4.533 4.533z"/><path d="m100.34 49.015a8.033 8.033 0 1 0 8.032 8.033 8.041 8.041 0 0 0 -8.032-8.033zm0 12.566a4.533 4.533 0 1 1 4.532-4.533 4.537 4.537 0 0 1 -4.532 4.533z"/><path d="m27.66 72.5a8.034 8.034 0 1 0 8.033 8.033 8.042 8.042 0 0 0 -8.033-8.033zm0 12.567a4.534 4.534 0 1 1 4.533-4.534 4.538 4.538 0 0 1 -4.533 4.529z"/><path d="m51.887 72.5a8.034 8.034 0 1 0 8.033 8.033 8.043 8.043 0 0 0 -8.033-8.033zm0 12.567a4.534 4.534 0 1 1 4.533-4.534 4.539 4.539 0 0 1 -4.533 4.529z"/><path d="m76.113 72.5a8.034 8.034 0 1 0 8.033 8.033 8.043 8.043 0 0 0 -8.033-8.033zm0 12.567a4.534 4.534 0 1 1 4.533-4.534 4.538 4.538 0 0 1 -4.533 4.529z"/><path d="m100.34 72.5a8.034 8.034 0 1 0 8.032 8.033 8.042 8.042 0 0 0 -8.032-8.033zm0 12.567a4.534 4.534 0 1 1 4.532-4.534 4.538 4.538 0 0 1 -4.532 4.529z"/><path d="m27.66 95.976a8.033 8.033 0 1 0 8.033 8.033 8.041 8.041 0 0 0 -8.033-8.033zm0 12.566a4.533 4.533 0 1 1 4.533-4.533 4.537 4.537 0 0 1 -4.533 4.533z"/><path d="m51.887 95.976a8.033 8.033 0 1 0 8.033 8.033 8.042 8.042 0 0 0 -8.033-8.033zm0 12.566a4.533 4.533 0 1 1 4.533-4.533 4.538 4.538 0 0 1 -4.533 4.533z"/><path d="m76.113 95.976a8.033 8.033 0 1 0 8.033 8.033 8.042 8.042 0 0 0 -8.033-8.033zm0 12.566a4.533 4.533 0 1 1 4.533-4.533 4.537 4.537 0 0 1 -4.533 4.533z"/><path d="m100.34 95.976a8.033 8.033 0 1 0 8.032 8.033 8.041 8.041 0 0 0 -8.032-8.033zm0 12.566a4.533 4.533 0 1 1 4.532-4.533 4.537 4.537 0 0 1 -4.532 4.533z"/></g></svg>