<?xml version="1.0" encoding="UTF-8" standalone="no"?>
<svg
   xmlns:dc="http://purl.org/dc/elements/1.1/"
   xmlns:cc="http://creativecommons.org/ns#"
   xmlns:rdf="http://www.w3.org/1999/02/22-rdf-syntax-ns#"
   xmlns:svg="http://www.w3.org/2000/svg"
   xmlns="http://www.w3.org/2000/svg"
   xmlns:sodipodi="http://sodipodi.sourceforge.net/DTD/sodipodi-0.dtd"
   xmlns:inkscape="http://www.inkscape.org/namespaces/inkscape"
   height="510.49701"
   width="573.42334"
   version="1.1"
   id="Capa_1"
   x="0px"
   y="0px"
   viewBox="0 0 573.42335 510.49702"
   xml:space="preserve"
   sodipodi:docname="man.svg"
   inkscape:version="1.0 (4035a4f, 2020-05-01)"><metadata
   id="metadata1163"><rdf:RDF><cc:Work
       rdf:about=""><dc:format>image/svg+xml</dc:format><dc:type
         rdf:resource="http://purl.org/dc/dcmitype/StillImage" /><dc:title></dc:title></cc:Work></rdf:RDF></metadata><defs
   id="defs1161" /><sodipodi:namedview
   inkscape:document-rotation="0"
   pagecolor="#ffffff"
   bordercolor="#666666"
   borderopacity="1"
   objecttolerance="10"
   gridtolerance="10"
   guidetolerance="10"
   inkscape:pageopacity="0"
   inkscape:pageshadow="2"
   inkscape:window-width="1920"
   inkscape:window-height="1052"
   id="namedview1159"
   showgrid="false"
   inkscape:zoom="1.1587205"
   inkscape:cx="204.20525"
   inkscape:cy="245.77591"
   inkscape:window-x="0"
   inkscape:window-y="0"
   inkscape:window-maximized="1"
   inkscape:current-layer="Capa_1" />
<g
   id="g1108"
   transform="matrix(1.1231367,0,0,1.1397138,-3.7226864e-4,-36.542644)">
	<g
   id="g1106">
		<path
   d="m 315.046,361.686 h -28.067 c -4.142,0 -7.5,3.358 -7.5,7.5 0,4.143 3.358,7.5 7.5,7.5 h 28.067 c 4.142,0 7.5,-3.357 7.5,-7.5 0,-4.142 -3.358,-7.5 -7.5,-7.5 z"
   id="path1104" />
	</g>
</g>
<g
   id="g1114"
   transform="matrix(1.1231367,0,0,1.1397138,-3.7226864e-4,-36.542644)">
	<g
   id="g1112">
		<path
   d="m 480.248,281.394 -40.841,-15.753 -20.823,-20.823 c -1.337,-1.337 -3.06,-2.061 -4.82,-2.174 v -16.569 c 9.814,-10.464 16.8,-23.715 19.619,-38.643 1.75,0.079 3.517,-0.062 5.26,-0.418 9.979,-2.043 17.222,-11.302 17.222,-22.014 v -5.469 c 0,-6.197 -2.513,-11.885 -6.605,-15.952 6.623,-36.02 1.168,-65.374 -15.846,-85.021 -16.457,-19.003 -42.971,-28.086 -76.672,-26.263 -31.136,1.683 -51.236,16.009 -57.604,21.25 -3.486,0.414 -9.424,1.638 -15.434,5.244 -8.33,4.998 -18.259,15.497 -18.259,37.13 0,18.872 3.016,34.628 5.2,43.567 -7.32,3.566 -12.217,11.294 -12.217,20.129 v 5.384 c 0,10.712 7.243,19.971 17.222,22.014 1.743,0.357 3.511,0.497 5.26,0.418 2.819,14.928 9.806,28.179 19.619,38.643 v 16.569 c -1.76,0.113 -3.484,0.837 -4.82,2.174 l -20.823,20.823 -40.841,15.753 c -3.533,1.362 -6.908,3.129 -10.03,5.25 -3.426,2.328 -4.316,6.992 -1.989,10.418 1.451,2.136 3.81,3.286 6.21,3.286 1.451,0 2.917,-0.421 4.208,-1.297 2.177,-1.479 4.532,-2.711 6.999,-3.663 l 37.903,-14.62 28.98,43.471 c 3.592,5.389 9.35,8.846 15.795,9.484 0.717,0.071 1.434,0.106 2.146,0.106 3.731,0 7.351,-0.981 10.555,-2.794 l -6.219,141.068 c -0.183,4.138 3.024,7.641 7.163,7.823 0.112,0.005 0.224,0.007 0.336,0.007 3.99,0 7.31,-3.145 7.487,-7.17 l 5.772,-130.941 h 15.57 l 5.772,130.941 c 0.177,4.026 3.497,7.17 7.487,7.17 0.112,0 0.224,-0.002 0.336,-0.007 4.138,-0.182 7.345,-3.685 7.163,-7.823 L 379.47,331.034 c 3.204,1.813 6.823,2.794 10.555,2.794 0.712,0 1.429,-0.035 2.146,-0.106 6.445,-0.638 12.202,-4.095 15.795,-9.484 l 28.98,-43.471 37.903,14.62 c 5.316,2.05 9.892,5.321 13.49,9.402 l -25.931,25.931 c -9.369,9.369 -14.528,21.825 -14.528,35.073 v 106.64 c 0,4.142 3.358,7.5 7.5,7.5 4.142,0 7.5,-3.358 7.5,-7.5 v -106.64 c 0,-9.241 3.599,-17.931 10.134,-24.466 l 22.758,-22.758 c 0.914,3.353 1.341,6.878 1.197,10.482 l 0.0643,143.078 c -0.168,4.139 3.051,7.63 7.189,7.799 0.104,0.004 0.207,0.006 0.31,0.006 4.001,0 7.325,-3.161 7.488,-7.195 L 511.958,329.657 c 0.851,-21.224 -11.892,-40.619 -31.71,-48.263 z M 295.592,184.339 c -1.323,-7.201 -7.991,-12.435 -15.188,-11.902 -0.569,0.041 -1.155,10e-4 -1.745,-0.119 -2.982,-0.61 -5.231,-3.757 -5.231,-7.318 v -5.386 c 0,-3.479 2.325,-6.613 5.292,-7.134 2.504,-0.44 4.902,0.479 6.419,2.458 1.377,1.795 3.214,3.079 5.311,3.711 3.072,0.928 6.459,0.383 9.063,-1.455 4.69,-3.311 8.828,-7.356 12.299,-12.024 2.472,-3.324 1.78,-8.022 -1.543,-10.493 -3.325,-2.472 -8.022,-1.781 -10.494,1.543 -1.731,2.328 -3.687,4.441 -5.84,6.311 -2.378,-2.034 -5.156,-3.504 -8.133,-4.343 -1.927,-7.382 -5.357,-23.197 -5.357,-42.271 0,-11.487 3.541,-19.558 10.524,-23.988 5.449,-3.457 11.216,-3.595 11.212,-3.596 1.917,0 3.783,-0.755 5.175,-2.072 0.183,-0.172 18.62,-17.282 50.194,-18.989 28.902,-1.56 51.214,5.736 64.523,21.104 13.414,15.49 17.881,39.271 13.035,69.036 -2.009,-0.071 -4.208,0.081 -6.397,0.446 l -7.046,-16.922 c -1.438,-3.452 -5.204,-5.316 -8.822,-4.373 -0.697,0.182 -69.958,17.74 -98.999,-18.416 -2.593,-3.229 -7.313,-3.745 -10.544,-1.151 -3.229,2.594 -3.745,7.314 -1.15,10.544 29.656,36.922 88.5,28.89 108.088,24.973 l 5.449,13.085 c 2.343,5.625 8.337,8.697 14.245,7.304 2.425,-0.571 4.742,-0.584 5.612,-0.412 3.033,0.604 5.32,3.629 5.32,7.039 v 5.47 c 0,3.562 -2.249,6.708 -5.231,7.318 -0.589,0.121 -1.178,0.161 -1.745,0.119 -7.196,-0.524 -13.864,4.7 -15.188,11.903 -5.456,29.704 -31.343,51.264 -61.554,51.264 -30.211,0 -56.098,-21.56 -61.554,-51.264 z m 33.271,132.576 c -1.902,1.902 -4.113,1.995 -5.263,1.881 -1.149,-0.113 -3.3,-0.639 -4.792,-2.877 l -29.195,-43.792 11.741,-11.741 44.82,39.218 z m 21.159,9.907 0.454,-10.308 6.669,-6.669 6.669,6.669 0.454,10.308 z m 7.124,-37.55 -41.617,-36.415 v -14.354 c 12.1,7.695 26.416,12.1 41.617,12.1 15.201,0 29.518,-4.405 41.618,-12.1 v 14.354 z m 38.34,26.647 c -1.493,2.239 -3.644,2.764 -4.792,2.877 -1.151,0.114 -3.362,0.021 -5.264,-1.882 l -17.311,-17.311 44.82,-39.218 11.741,11.741 z"
   id="path1110"
   sodipodi:nodetypes="ccsccccssccccsscsscccccccccsccccssccssccccscccscccccsssssssccccsccccccsscccccccccsccccccccccccccccsscccscscccccscccccccccscccccccccc" />
	</g>
</g>
<g
   id="g1120"
   transform="matrix(1.1231367,0,0,1.1397138,-3.7226864e-4,-36.542644)">
	<g
   id="g1118">
		<path
   d="m 237.845,320.699 -36.622,-15.985 -20.019,-20.019 c -1.341,-1.342 -3.065,-2.062 -4.82,-2.174 v -11.799 c 17.109,-11.243 29.629,-29.124 33.652,-50.431 1.97,0.088 3.959,-0.101 5.919,-0.564 9.597,-2.271 16.562,-11.468 16.562,-21.868 v -5.468 c 0,-7.598 -3.77,-14.433 -9.611,-18.443 1.718,-6.806 2.594,-13.769 2.594,-20.778 0,-31.072 -16.796,-58.44 -42.113,-74.154 -0.27,-25.933 -22.405,-46.953 -49.588,-46.953 -27.183,0 -49.318,21.02 -49.588,46.953 -25.316,15.714 -42.112,43.083 -42.112,74.154 0,6.988 0.87,13.931 2.578,20.718 -5.838,3.99 -9.595,10.857 -9.595,18.585 v 5.386 c 0,10.4 6.965,19.597 16.562,21.868 1.96,0.464 3.948,0.652 5.919,0.564 4.023,21.307 16.544,39.188 33.653,50.431 v 11.799 c -1.755,0.112 -3.479,0.832 -4.82,2.174 l -20.019,20.019 -36.621,15.985 c -18.633,8.134 -30.573,27.246 -29.712,47.559 l 0.11544833,104.80122 c 0.171,4.03 3.49199997,7.183 7.48799997,7.183 0.107,0 0.215,-0.002 0.323,-0.007 4.1389997,-0.175 7.3509997,-3.672 7.1759997,-7.811 L 15.03,367.622 c -0.285,-6.733 1.465,-13.266 4.755,-18.889 l 19.685,23.622 c 6.221,7.465 9.646,16.927 9.646,26.643 v 73.436 c 0,4.142 3.358,7.5 7.5,7.5 4.142,0 7.5,-3.358 7.5,-7.5 v -73.436 c 0,-13.218 -4.661,-26.09 -13.123,-36.245 L 30.066,337.64 c 1.779,-1.226 3.67,-2.312 5.691,-3.194 l 31.916,-13.932 22.554,36.609 c 2.227,3.615 5.909,6.066 10.103,6.726 0.754,0.119 1.51,0.177 2.263,0.177 3.429,0 6.769,-1.215 9.417,-3.475 l 14.292,-12.195 v 124.077 c 0,4.142 3.358,7.5 7.5,7.5 4.142,0 7.5,-3.358 7.5,-7.5 V 348.358 l 14.291,12.195 c 2.648,2.26 5.988,3.475 9.417,3.475 0.752,0 1.509,-0.059 2.263,-0.177 4.194,-0.66 7.876,-3.111 10.103,-6.726 l 22.554,-36.61 31.916,13.932 c 2.02,0.882 3.912,1.968 5.691,3.194 l -20.927,25.113 c -8.462,10.154 -13.123,23.027 -13.123,36.245 v 73.436 c 0,4.142 3.358,7.5 7.5,7.5 4.142,0 7.5,-3.358 7.5,-7.5 v -73.436 c 0,-9.716 3.426,-19.178 9.646,-26.643 l 19.685,-23.622 c 3.29,5.623 5.04,12.156 4.755,18.889 l 0.001,104.494 c -0.175,4.138 3.037,7.635 7.176,7.811 0.108,0.005 0.215,0.007 0.323,0.007 3.996,0 7.317,-3.152 7.488,-7.183 L 267.56,368.259 c 0.86,-20.313 -11.081,-39.426 -29.715,-47.56 z M 133.801,47.063 c 15.956,0 29.418,10.179 33.399,23.971 -10.354,-3.908 -21.62,-6.057 -33.399,-6.057 -11.779,0 -23.045,2.149 -33.399,6.057 3.981,-13.792 17.442,-23.971 33.399,-23.971 z M 72.246,217.2 c -1.322,-7.203 -8.001,-12.435 -15.187,-11.903 -0.637,0.045 -1.295,-0.009 -1.959,-0.167 -2.86,-0.677 -5.017,-3.803 -5.017,-7.271 v -5.386 c 0,-3.479 2.325,-6.613 5.292,-7.134 2.504,-0.44 4.901,0.48 6.417,2.457 1.377,1.796 3.214,3.08 5.313,3.714 3.071,0.928 6.46,0.383 9.062,-1.456 4.619,-3.26 8.703,-7.234 12.139,-11.81 2.487,-3.312 1.818,-8.014 -1.494,-10.5 -3.313,-2.487 -8.014,-1.818 -10.501,1.494 -1.701,2.265 -3.616,4.324 -5.722,6.153 -3.209,-2.744 -7.144,-4.462 -11.318,-4.983 -1.437,-5.649 -2.172,-11.426 -2.172,-17.237 0,-40.358 34.408,-73.193 76.702,-73.193 42.293,0 76.701,32.834 76.701,73.193 0,5.8 -0.731,11.565 -2.163,17.204 -1.974,0.157 -3.98,0.48 -5.837,0.962 l -5.638,-4.636 c -2.833,-2.33 -6.399,-3.496 -10.008,-3.281 -11.024,0.651 -67.482,2.142 -96.448,-32.524 -2.656,-3.178 -7.385,-3.602 -10.564,-0.946 -3.179,2.656 -3.602,7.386 -0.946,10.564 14.286,17.097 35.239,28.658 62.276,34.362 20.701,4.367 39.103,3.943 46.313,3.532 l 8.796,7.233 c 2.421,1.991 5.816,2.272 8.527,0.694 1.272,-0.693 5.532,-1.355 7.391,-0.984 3.033,0.603 5.319,3.629 5.319,7.04 v 5.468 c 0,3.469 -2.157,6.595 -5.017,7.271 -0.663,0.157 -1.322,0.214 -1.959,0.166 -7.182,-0.522 -13.865,4.701 -15.188,11.903 -5.456,29.705 -31.343,51.265 -61.554,51.265 -30.212,0 -56.1,-21.56 -61.556,-51.264 z M 102.702,348.776 80.144,312.16 91.7,300.604 l 31.058,31.058 z m 31.099,-27.285 -27.584,-27.584 v -15.516 c 8.611,3.278 17.916,5.073 27.584,5.073 9.668,0 18.973,-1.795 27.584,-5.072 v 15.515 z m 31.099,27.285 -20.056,-17.114 31.058,-31.058 11.556,11.556 z"
   id="path1116"
   sodipodi:nodetypes="cccccccsscscscscsscccccccccscccccsssssccccccsccsssccsccccccssssscccccscccscscscccsscccccccccssscccccsccccccsscccscccccccccscccccccc" />
	</g>
</g>
<g
   id="g1126"
   transform="matrix(1.1231367,0,0,1.1397138,-3.7226864e-4,-36.542644)">
	<g
   id="g1124">
		<path
   d="m 105.734,394.766 h -21.05 c -4.142,0 -7.5,3.358 -7.5,7.5 0,4.142 3.358,7.5 7.5,7.5 h 21.05 c 4.142,0 7.5,-3.358 7.5,-7.5 0,-4.142 -3.358,-7.5 -7.5,-7.5 z"
   id="path1122" />
	</g>
</g>
<g
   transform="translate(5.6660808,-24.022847)"
   id="g1128">
</g>
<g
   transform="translate(5.6660808,-24.022847)"
   id="g1130">
</g>
<g
   transform="translate(5.6660808,-24.022847)"
   id="g1132">
</g>
<g
   transform="translate(5.6660808,-24.022847)"
   id="g1134">
</g>
<g
   transform="translate(5.6660808,-24.022847)"
   id="g1136">
</g>
<g
   transform="translate(5.6660808,-24.022847)"
   id="g1138">
</g>
<g
   transform="translate(5.6660808,-24.022847)"
   id="g1140">
</g>
<g
   transform="translate(5.6660808,-24.022847)"
   id="g1142">
</g>
<g
   transform="translate(5.6660808,-24.022847)"
   id="g1144">
</g>
<g
   transform="translate(5.6660808,-24.022847)"
   id="g1146">
</g>
<g
   transform="translate(5.6660808,-24.022847)"
   id="g1148">
</g>
<g
   transform="translate(5.6660808,-24.022847)"
   id="g1150">
</g>
<g
   transform="translate(5.6660808,-24.022847)"
   id="g1152">
</g>
<g
   transform="translate(5.6660808,-24.022847)"
   id="g1154">
</g>
<g
   transform="translate(5.6660808,-24.022847)"
   id="g1156">
</g>
</svg>
