<svg id="Capa_1" enable-background="new 0 0 512 512" height="512" viewBox="0 0 512 512" width="512" xmlns="http://www.w3.org/2000/svg"><g><path d="m81.729 0c-4.143 0-7.5 3.358-7.5 7.5v17.024h-21.055c-10.944 0-19.848 8.904-19.848 19.848v447.779c0 10.944 8.903 19.848 19.848 19.848h280.917c10.944 0 19.848-8.904 19.848-19.848 0-2.637 0-433.814 0-447.779 0-10.944-8.903-19.848-19.848-19.848h-21.055v-17.024c0-4.142-3.357-7.5-7.5-7.5s-7.5 3.358-7.5 7.5v17.024h-29.762v-17.024c0-4.142-3.357-7.5-7.5-7.5s-7.5 3.358-7.5 7.5v17.024h-29.761v-17.024c0-4.142-3.357-7.5-7.5-7.5s-7.5 3.358-7.5 7.5v17.024h-29.762v-17.024c0-4.142-3.357-7.5-7.5-7.5s-7.5 3.358-7.5 7.5v17.024h-29.761v-17.024c0-4.142-3.357-7.5-7.5-7.5s-7.5 3.358-7.5 7.5v17.024h-29.761v-17.024c0-4.142-3.358-7.5-7.5-7.5zm37.261 39.524v17.024c0 4.142 3.357 7.5 7.5 7.5s7.5-3.358 7.5-7.5v-17.024h29.762v17.024c0 4.142 3.357 7.5 7.5 7.5s7.5-3.358 7.5-7.5v-17.024h29.762v17.024c0 4.142 3.357 7.5 7.5 7.5s7.5-3.358 7.5-7.5v-17.024h29.761v17.024c0 4.142 3.357 7.5 7.5 7.5s7.5-3.358 7.5-7.5v-17.024h29.762v17.024c0 4.142 3.357 7.5 7.5 7.5s7.5-3.358 7.5-7.5v-17.024h21.055c2.628 0 4.848 2.22 4.848 4.848v37.134h-127.807c-4.143 0-7.5 3.358-7.5 7.5s3.357 7.5 7.5 7.5h127.806v395.646c0 2.628-2.22 4.848-4.848 4.848h-280.917c-2.628 0-4.848-2.22-4.848-4.848v-395.646h127.807c4.143 0 7.5-3.358 7.5-7.5s-3.357-7.5-7.5-7.5h-127.807v-37.133c0-2.628 2.22-4.848 4.848-4.848h21.055v17.024c0 4.142 3.357 7.5 7.5 7.5s7.5-3.358 7.5-7.5v-17.025z"/><path d="m95.174 191.769h-13.445c-4.143 0-7.5 3.358-7.5 7.5s3.357 7.5 7.5 7.5h13.445c4.143 0 7.5-3.358 7.5-7.5s-3.358-7.5-7.5-7.5z"/><path d="m95.174 159.273h-13.445c-4.143 0-7.5 3.358-7.5 7.5s3.357 7.5 7.5 7.5h13.445c4.143 0 7.5-3.358 7.5-7.5s-3.358-7.5-7.5-7.5z"/><path d="m95.174 126.778h-13.445c-4.143 0-7.5 3.358-7.5 7.5s3.357 7.5 7.5 7.5h13.445c4.143 0 7.5-3.358 7.5-7.5s-3.358-7.5-7.5-7.5z"/><path d="m95.174 289.253h-13.445c-4.143 0-7.5 3.358-7.5 7.5s3.357 7.5 7.5 7.5h13.445c4.143 0 7.5-3.358 7.5-7.5s-3.358-7.5-7.5-7.5z"/><path d="m95.174 256.758h-13.445c-4.143 0-7.5 3.358-7.5 7.5s3.357 7.5 7.5 7.5h13.445c4.143 0 7.5-3.358 7.5-7.5s-3.358-7.5-7.5-7.5z"/><path d="m95.174 224.263h-13.445c-4.143 0-7.5 3.358-7.5 7.5s3.357 7.5 7.5 7.5h13.445c4.143 0 7.5-3.358 7.5-7.5s-3.358-7.5-7.5-7.5z"/><path d="m95.174 386.738h-13.445c-4.143 0-7.5 3.358-7.5 7.5s3.357 7.5 7.5 7.5h13.445c4.143 0 7.5-3.358 7.5-7.5s-3.358-7.5-7.5-7.5z"/><path d="m95.174 354.243h-13.445c-4.143 0-7.5 3.358-7.5 7.5s3.357 7.5 7.5 7.5h13.445c4.143 0 7.5-3.358 7.5-7.5s-3.358-7.5-7.5-7.5z"/><path d="m95.174 321.748h-13.445c-4.143 0-7.5 3.358-7.5 7.5s3.357 7.5 7.5 7.5h13.445c4.143 0 7.5-3.358 7.5-7.5s-3.358-7.5-7.5-7.5z"/><path d="m95.174 451.728h-13.445c-4.143 0-7.5 3.358-7.5 7.5s3.357 7.5 7.5 7.5h13.445c4.143 0 7.5-3.358 7.5-7.5s-3.358-7.5-7.5-7.5z"/><path d="m95.174 419.233h-13.445c-4.143 0-7.5 3.358-7.5 7.5s3.357 7.5 7.5 7.5h13.445c4.143 0 7.5-3.358 7.5-7.5s-3.358-7.5-7.5-7.5z"/><path d="m305.536 191.769h-179.046c-4.143 0-7.5 3.358-7.5 7.5s3.357 7.5 7.5 7.5h179.046c4.143 0 7.5-3.358 7.5-7.5s-3.357-7.5-7.5-7.5z"/><path d="m305.536 159.273h-179.046c-4.143 0-7.5 3.358-7.5 7.5s3.357 7.5 7.5 7.5h179.046c4.143 0 7.5-3.358 7.5-7.5s-3.357-7.5-7.5-7.5z"/><path d="m118.99 134.278c0 4.142 3.357 7.5 7.5 7.5h179.046c4.143 0 7.5-3.358 7.5-7.5s-3.357-7.5-7.5-7.5h-179.046c-4.142 0-7.5 3.358-7.5 7.5z"/><path d="m305.536 289.253h-179.046c-4.143 0-7.5 3.358-7.5 7.5s3.357 7.5 7.5 7.5h179.046c4.143 0 7.5-3.358 7.5-7.5s-3.357-7.5-7.5-7.5z"/><path d="m305.536 256.758h-179.046c-4.143 0-7.5 3.358-7.5 7.5s3.357 7.5 7.5 7.5h179.046c4.143 0 7.5-3.358 7.5-7.5s-3.357-7.5-7.5-7.5z"/><path d="m305.536 224.263h-179.046c-4.143 0-7.5 3.358-7.5 7.5s3.357 7.5 7.5 7.5h179.046c4.143 0 7.5-3.358 7.5-7.5s-3.357-7.5-7.5-7.5z"/><path d="m305.536 386.738h-179.046c-4.143 0-7.5 3.358-7.5 7.5s3.357 7.5 7.5 7.5h179.046c4.143 0 7.5-3.358 7.5-7.5s-3.357-7.5-7.5-7.5z"/><path d="m305.536 354.243h-179.046c-4.143 0-7.5 3.358-7.5 7.5s3.357 7.5 7.5 7.5h179.046c4.143 0 7.5-3.358 7.5-7.5s-3.357-7.5-7.5-7.5z"/><path d="m305.536 321.748h-179.046c-4.143 0-7.5 3.358-7.5 7.5s3.357 7.5 7.5 7.5h179.046c4.143 0 7.5-3.358 7.5-7.5s-3.357-7.5-7.5-7.5z"/><path d="m305.536 451.728h-179.046c-4.143 0-7.5 3.358-7.5 7.5s3.357 7.5 7.5 7.5h179.046c4.143 0 7.5-3.358 7.5-7.5s-3.357-7.5-7.5-7.5z"/><path d="m305.536 419.233h-179.046c-4.143 0-7.5 3.358-7.5 7.5s3.357 7.5 7.5 7.5h179.046c4.143 0 7.5-3.358 7.5-7.5s-3.357-7.5-7.5-7.5z"/><path d="m420.508 24.524h-8c-10.752 0-19.5 8.748-19.5 19.5v26.994c-6.285 3.34-10.579 9.95-10.579 17.55v7.938h-1.255c-4.143 0-7.5 3.358-7.5 7.5s3.357 7.5 7.5 7.5h1.255v308.74c0 2.64.749 5.102 2.025 7.211l16.45 66.413c1.807 7.296 8.073 12.21 15.604 12.21 7.541 0 13.8-4.925 15.604-12.21 2.631-10.621 14.421-58.219 16.45-66.413 1.276-2.109 2.025-4.571 2.025-7.211v-68.753c0-4.142-3.357-7.5-7.5-7.5s-7.5 3.358-7.5 7.5v67.739h-38.158v-179.97h38.158v77.23c0 4.142 3.357 7.5 7.5 7.5s7.5-3.358 7.5-7.5c0-8.964 0-195.802 0-204.326 7.533 2.085 13.087 8.984 13.087 17.172v102.424c0 4.142 3.357 7.5 7.5 7.5s7.5-3.358 7.5-7.5v-102.423c0-16.492-12.224-30.178-28.087-32.486v-8.285c0-7.6-4.294-14.21-10.579-17.55v-26.994c0-10.752-8.748-19.5-19.5-19.5zm-2.957 465.741c-.08.325-.202.816-1.044.816-.841 0-.963-.491-1.043-.816l-6.339-25.592h14.765zm13.879-56.032-3.824 15.44h-22.196l-3.824-15.44zm-23.422-390.209c0-2.439 2.061-4.5 4.5-4.5h8c2.439 0 4.5 2.061 4.5 4.5v24.676h-17zm27.579 180.239h-38.158v-112.757h38.158zm0-127.757h-38.158v-7.938c0-2.639 2.229-4.868 4.868-4.868h28.421.002c2.638.001 4.867 2.23 4.867 4.868z"/></g></svg>