<svg id="Capa_1" enable-background="new 0 0 512 512" height="512" viewBox="0 0 512 512" width="512" xmlns="http://www.w3.org/2000/svg"><g><g><path d="m165.265 420.075c4.142 0 7.5-3.358 7.5-7.5v-4.915c10.604-2.64 18.828-10.671 21.04-21.278 2.643-12.675-3.867-24.514-16.585-30.16-1.436-.638-2.935-1.304-4.455-1.985v-22.824c2.635 1.044 4.288 2.117 4.385 2.182 3.398 2.333 8.045 1.486 10.401-1.901 2.366-3.4 1.526-8.074-1.874-10.439-.344-.239-5.346-3.654-12.912-5.569v-4.128c0-4.142-3.358-7.5-7.5-7.5s-7.5 3.358-7.5 7.5v3.182c-1.136.151-2.288.352-3.458.622-8.926 2.06-15.603 9.159-17.423 18.526-1.776 9.137 1.658 18.248 8.748 23.21 3.043 2.13 7.163 4.339 12.134 6.729v29.421c-3.06-.484-5.444-1.588-9.161-4.019-3.467-2.268-8.115-1.296-10.382 2.17-2.268 3.466-1.296 8.115 2.17 10.382 6.58 4.304 11.384 5.981 17.373 6.554v4.238c-.001 4.144 3.357 7.502 7.499 7.502zm13.855-36.755c-.67 3.215-2.811 6.454-6.355 8.414v-20.972c5.056 2.856 7.422 7.442 6.355 12.558zm-24.886-38.51c-2.723-1.906-3.116-5.533-2.625-8.06.256-1.319 1.452-5.706 6.072-6.771.029-.007.056-.009.085-.016v17.014c-1.361-.76-2.565-1.49-3.532-2.167z"/><path d="m427.73 0h-343.46c-4.142 0-7.5 3.358-7.5 7.5v325.29c0 4.142 3.358 7.5 7.5 7.5s7.5-3.358 7.5-7.5v-317.79h328.46v63.99c0 4.142 3.357 7.5 7.5 7.5s7.5-3.358 7.5-7.5v-71.49c0-4.142-3.357-7.5-7.5-7.5z"/><path d="m427.73 106.59c-4.143 0-7.5 3.358-7.5 7.5v370.007l-21.136-24.865c-1.426-1.677-3.515-2.643-5.716-2.643-2.2 0-4.289.967-5.714 2.644l-28.626 33.686-28.634-33.686c-1.426-1.677-3.515-2.643-5.716-2.643-2.2 0-4.289.966-5.714 2.643l-28.627 33.686-28.634-33.686c-1.426-1.676-3.515-2.643-5.715-2.643s-4.29.966-5.714 2.643l-28.635 33.686-28.625-33.686c-1.425-1.677-3.514-2.644-5.715-2.644-2.2 0-4.29.966-5.714 2.643l-28.635 33.686-28.625-33.686c-1.425-1.677-3.514-2.644-5.715-2.644-2.2 0-4.29.966-5.714 2.643l-21.136 24.865v-116.206c0-4.142-3.358-7.5-7.5-7.5s-7.5 3.358-7.5 7.5v136.61c0 3.144 1.961 5.955 4.913 7.04 2.949 1.083 6.265.213 8.302-2.182l28.635-33.686 28.625 33.686c1.425 1.677 3.514 2.644 5.715 2.644 2.2 0 4.29-.966 5.714-2.643l28.635-33.686 28.625 33.686c1.425 1.677 3.514 2.644 5.715 2.644 2.2 0 4.29-.966 5.714-2.643l28.637-33.691 28.635 33.687c1.426 1.677 3.515 2.643 5.715 2.643 2.201 0 4.29-.966 5.715-2.643l28.627-33.686 28.634 33.686c1.426 1.677 3.515 2.643 5.716 2.643 2.2 0 4.289-.967 5.714-2.644l28.626-33.686 28.635 33.686c1.454 1.71 3.558 2.643 5.717 2.643.865 0 1.741-.15 2.586-.461 2.951-1.085 4.912-3.896 4.912-7.04v-390.407c-.002-4.142-3.359-7.5-7.502-7.5z"/><path d="m346.915 32.325h-181.83c-4.142 0-7.5 3.358-7.5 7.5v32.325c0 4.142 3.358 7.5 7.5 7.5h181.829c4.143 0 7.5-3.358 7.5-7.5v-32.325c.001-4.142-3.357-7.5-7.499-7.5zm-7.5 32.325h-166.83v-17.325h166.829v17.325z"/><path d="m122.659 192.788h161.625c4.143 0 7.5-3.358 7.5-7.5s-3.357-7.5-7.5-7.5h-161.625c-4.142 0-7.5 3.358-7.5 7.5s3.357 7.5 7.5 7.5z"/><path d="m115.159 144.882c0 4.142 3.358 7.5 7.5 7.5h161.625c4.143 0 7.5-3.358 7.5-7.5s-3.357-7.5-7.5-7.5h-161.625c-4.143 0-7.5 3.358-7.5 7.5z"/><path d="m122.659 233.195h161.625c4.143 0 7.5-3.358 7.5-7.5s-3.357-7.5-7.5-7.5h-161.625c-4.142 0-7.5 3.358-7.5 7.5s3.357 7.5 7.5 7.5z"/><path d="m122.659 273.601h161.625c4.143 0 7.5-3.358 7.5-7.5s-3.357-7.5-7.5-7.5h-161.625c-4.142 0-7.5 3.358-7.5 7.5s3.357 7.5 7.5 7.5z"/><path d="m389.341 177.788h-34.346c-4.143 0-7.5 3.358-7.5 7.5s3.357 7.5 7.5 7.5h34.346c4.143 0 7.5-3.358 7.5-7.5s-3.357-7.5-7.5-7.5z"/><path d="m389.341 137.382h-34.346c-4.143 0-7.5 3.358-7.5 7.5s3.357 7.5 7.5 7.5h34.346c4.143 0 7.5-3.358 7.5-7.5s-3.357-7.5-7.5-7.5z"/><path d="m389.341 218.195h-34.346c-4.143 0-7.5 3.358-7.5 7.5s3.357 7.5 7.5 7.5h34.346c4.143 0 7.5-3.358 7.5-7.5s-3.357-7.5-7.5-7.5z"/><path d="m389.341 258.601h-34.346c-4.143 0-7.5 3.358-7.5 7.5s3.357 7.5 7.5 7.5h34.346c4.143 0 7.5-3.358 7.5-7.5s-3.357-7.5-7.5-7.5z"/><path d="m389.341 299.008h-34.346c-4.143 0-7.5 3.358-7.5 7.5s3.357 7.5 7.5 7.5h34.346c4.143 0 7.5-3.358 7.5-7.5s-3.357-7.5-7.5-7.5z"/></g></g></svg>