<?xml version="1.0" encoding="UTF-8" standalone="no"?>
<svg
   xmlns:dc="http://purl.org/dc/elements/1.1/"
   xmlns:cc="http://creativecommons.org/ns#"
   xmlns:rdf="http://www.w3.org/1999/02/22-rdf-syntax-ns#"
   xmlns:svg="http://www.w3.org/2000/svg"
   xmlns="http://www.w3.org/2000/svg"
   xmlns:sodipodi="http://sodipodi.sourceforge.net/DTD/sodipodi-0.dtd"
   xmlns:inkscape="http://www.inkscape.org/namespaces/inkscape"
   inkscape:version="1.0 (4035a4f, 2020-05-01)"
   sodipodi:docname="add_notes.svg"
   version="1.1"
   id="svg2"
   xml:space="preserve"
   width="3680"
   height="2453.3333"
   viewBox="0 0 3680 2453.3333"><sodipodi:namedview
     inkscape:current-layer="g12"
     inkscape:window-maximized="1"
     inkscape:window-y="0"
     inkscape:window-x="0"
     inkscape:cy="1226.6666"
     inkscape:cx="1840"
     inkscape:zoom="0.25543478"
     showgrid="false"
     id="namedview2842"
     inkscape:window-height="1052"
     inkscape:window-width="1920"
     inkscape:pageshadow="2"
     inkscape:pageopacity="0"
     guidetolerance="10"
     gridtolerance="10"
     objecttolerance="10"
     borderopacity="1"
     bordercolor="#666666"
     pagecolor="#ffffff" /><metadata
     id="metadata8"><rdf:RDF><cc:Work
         rdf:about=""><dc:format>image/svg+xml</dc:format><dc:type
           rdf:resource="http://purl.org/dc/dcmitype/StillImage" /></cc:Work></rdf:RDF></metadata><defs
     id="defs6" /><g
     id="g10"
     transform="matrix(1.3333333,0,0,-1.3333333,0,2453.3333)"><g
       id="g12"
       transform="scale(0.1)"><g
         id="g18"
         transform="scale(1.60661)"><path
           d="m 14048.7,1126.22 c 0,0 1056.5,-250.462 1576.6,884.66 674.7,1472.61 -272.3,2871.58 -1906,2972.35 C 11363.2,5128.51 12669,8890.27 8951.04,7869.6 7905.54,7582.61 5631.68,9064.16 4293.1,6553.84 4065.49,6126.99 3385.07,6147.94 2478.55,5419.74 879.418,4135.17 1455.09,1112.59 2802.47,1098.84 c 1347.37,-13.69 11246.23,27.38 11246.23,27.38"
           style="fill:#fcecdb;fill-opacity:1;fill-rule:nonzero;stroke:none"
           id="path20" /></g><g
         id="g22"
         transform="scale(1.24561)"><path
           d="m 3918.46,1424.36 c 0,0 63.34,415.05 871.64,526.73 808.3,111.67 1559.87,1007.05 2892.85,877.08 1333.01,-129.9 2439.05,-945.32 3956.35,-695.49 1517.4,249.84 2467.5,-68.56 2807.8,-319.76 340.3,-251.12 1748.9,58.93 1852.9,-401.24 l -12381.54,12.68"
           style="fill:#a8d29f;fill-opacity:1;fill-rule:nonzero;stroke:none"
           id="path24" /></g><path
         d="m 9019.59,14094.2 c 0,0 -1136.34,55.5 -533.53,-3407.7 0,0 405.54,-1175.64 -106.4,-1933.35 H 15915.7 V 14094.2 H 9019.59"
         style="fill:#afcdfb;fill-opacity:1;fill-rule:nonzero;stroke:none"
         id="path26" /><path
         d="m 9793.59,5090 c 0,0 -526.48,614.2 -32.46,1004.4 0,0 360.87,218.5 655.07,200.7 0,0 -416.9,-699.1 -282,-768.7 134.9,-69.5 408.4,812.6 408.4,812.6 0,0 821.1,79.6 1085.3,-47.4 0,0 -702,-574.5 -554.1,-608.7 147.8,-34.2 906.1,529.7 906.1,529.7 0,0 764.2,-130.1 723.5,-596.3 -40.8,-466.2 -304.1,-610.2 -419.9,-597.8 -115.7,12.4 -792.8,270.8 -807.5,176 -14.8,-94.8 392.8,-404.8 678.2,-419.3 0,0 -538.8,-594.2 -897,-422.7 -358.1,171.5 -388.6,443.3 -611.9,545.3 -223.2,102 -413.8,101.7 -321.6,-2.3 92.2,-104 496.2,-205 623.8,-430.8 127.7,-225.9 242.2,-378.1 -128.3,-322.4 -370.5,55.7 -972.73,326.9 -999.17,637.3 -26.44,310.4 -26.44,310.4 -26.44,310.4"
         style="fill:#599dad;fill-opacity:1;fill-rule:nonzero;stroke:none"
         id="path28" /><path
         d="m 12327.9,5603.7 c 0,0 -2075.9,80 -2534.31,-513.7 0,0 -101.38,-303.6 -413.36,-580.1 l -48.63,-132.5 c 0,0 359.72,379.3 488.43,402.2 0,0 -201.29,735.5 2507.87,824.1"
         style="fill:#599dad;fill-opacity:1;fill-rule:nonzero;stroke:none"
         id="path30" /><path
         d="m 9380.23,4509.9 c 0,0 -445.55,-329.5 -476.5,-918.3 l 80.86,-7.2 c 0,0 142.31,608.8 399.52,846.8 257.2,238.1 -3.88,78.7 -3.88,78.7"
         style="fill:#599dad;fill-opacity:1;fill-rule:nonzero;stroke:none"
         id="path32" /><path
         d="m 7952.84,5862.5 c 0,0 837.49,469 446.66,1105.5 0,0 -312.66,390.8 -647.65,491.3 0,0 178.66,-949.2 0,-971.5 -178.68,-22.3 -122.84,1072 -122.84,1072 0,0 -882.16,424.3 -1228.33,390.8 0,0 547.16,-926.8 368.5,-904.5 -178.66,22.4 -792.83,960.4 -792.83,960.4 0,0 -904.49,167.5 -1049.66,-368.5 -145.17,-536 89.34,-804 223.33,-837.5 133.99,-33.5 993.83,-22.4 971.49,-134 -22.32,-111.7 -602.99,-290.3 -926.82,-189.9 0,0 357.33,-882.1 826.33,-837.4 468.99,44.6 614.16,334.9 904.5,357.3 290.32,22.3 502.49,-55.9 357.32,-134 -145.16,-78.2 -636.49,-25.6 -870.99,-225 -234.5,-199.3 -424.34,-322.2 11.16,-411.5 435.5,-89.3 1217.16,-33.5 1373.49,301.5 156.34,335 156.34,335 156.34,335"
         style="fill:#6bb7bf;fill-opacity:1;fill-rule:nonzero;stroke:none"
         id="path34" /><path
         d="m 5339.85,7470.5 c 0,0 2344.99,-759.4 2612.99,-1608 0,0 -11.17,-379.7 223.33,-815.2 v -167.5 c 0,0 -245.66,569.5 -379.67,647.7 0,0 524.84,737 -2456.65,1943"
         style="fill:#6bb7bf;fill-opacity:1;fill-rule:nonzero;stroke:none"
         id="path36" /><path
         d="m 8176.17,5047.3 c 0,0 361.63,-549.1 155.47,-1217.6 l -93.04,25 c 0,0 90.31,736.3 -98.89,1106.6 -189.2,370.3 36.46,86 36.46,86"
         style="fill:#6bb7bf;fill-opacity:1;fill-rule:nonzero;stroke:none"
         id="path38" /><path
         d="m 9285.22,6509.3 c 0,0 -1103.97,618.2 -588.77,1457.2 0,0 412.14,515.23 853.73,647.7 0,0 -235.51,-1251.2 0,-1280.6 235.51,-29.4 161.91,1413.08 161.91,1413.08 0,0 1162.91,559.35 1619.21,515.19 0,0 -721.3,-1221.77 -485.8,-1192.27 235.5,29.4 1045.1,1265.87 1045.1,1265.87 0,0 1192.3,220.8 1383.7,-485.75 191.3,-706.52 -117.8,-1059.82 -294.4,-1104.02 -176.7,-44.1 -1310.1,-29.4 -1280.6,-176.6 29.4,-147.2 794.8,-382.7 1221.7,-250.2 0,0 -471,-1162.9 -1089.3,-1104 -618.2,58.9 -809.6,441.6 -1192.3,471 -382.7,29.5 -662.35,-73.6 -471,-176.6 191.4,-103.1 839,-33.8 1148.1,-296.6 309.2,-262.7 559.4,-424.7 -14.7,-542.4 -574,-117.8 -1604.43,-44.2 -1810.5,397.4 -206.08,441.6 -206.08,441.6 -206.08,441.6"
         style="fill:#86d1cd;fill-opacity:1;fill-rule:nonzero;stroke:none"
         id="path40" /><path
         d="m 12729.6,8628.92 c 0,0 -3091.1,-1000.92 -3444.38,-2119.62 0,0 14.72,-500.5 -294.38,-1074.5 V 5214 c 0,0 323.83,750.7 500.46,853.7 0,0 -691.83,971.5 3238.3,2561.22"
         style="fill:#6bb7bf;fill-opacity:1;fill-rule:nonzero;stroke:none"
         id="path42" /><path
         d="m 8990.84,5434.8 c 0,0 -476.71,-723.9 -204.95,-1605.1 l 122.65,32.9 c 0,0 -119.06,970.6 130.36,1458.7 249.4,488.2 -48.06,113.5 -48.06,113.5"
         style="fill:#6bb7bf;fill-opacity:1;fill-rule:nonzero;stroke:none"
         id="path44" /><path
         d="m 9248.03,1918.8 c 1194.37,0 2162.47,968.2 2162.47,2162.5 H 7085.52 c 0,-1194.3 968.18,-2162.5 2162.51,-2162.5"
         style="fill:#efcbab;fill-opacity:1;fill-rule:nonzero;stroke:none"
         id="path46" /><path
         d="m 9780.16,1935.3 c -87.96,-11 -177.64,-16.5 -268.68,-16.5 -1194.29,0 -2162.41,968.2 -2162.41,2162.5 h 537.24 c 0,-1103.4 826.3,-2013.7 1893.85,-2146"
         style="fill:#ffebdc;fill-opacity:1;fill-rule:nonzero;stroke:none"
         id="path48" /><path
         d="M 11440.4,1808.7 H 7055.65 v 0 c 0,147.4 119.45,266.8 266.8,266.8 h 3851.15 c 147.4,0 266.8,-119.4 266.8,-266.8 v 0"
         style="fill:#efcbab;fill-opacity:1;fill-rule:nonzero;stroke:none"
         id="path50" /><path
         d="M 11459.7,4015 H 7014.4 v 66.3 h 4445.3 V 4015"
         style="fill:#efcdaf;fill-opacity:1;fill-rule:nonzero;stroke:none"
         id="path52" /><g
         id="g54"
         transform="scale(1.2374)"><path
           d="m 13797.6,9943.14 c 0,0 -306.1,577.66 152.6,797.66 0,0 323.2,108.2 552.1,42 0,0 -452.7,-477.2 -358.7,-556 93.9,-78.7 466.1,568.2 466.1,568.2 0,0 661.5,-82.9 847.3,-229.9 0,0 -655.4,-328.4 -544.9,-381.6 110.6,-53.2 808.4,256.9 808.4,256.9 0,0 579.5,-238.1 464.7,-598.49 -114.9,-360.36 -348,-427.16 -437.2,-396.86 -89,30.31 -577,354.19 -605.4,282.03 -28.5,-72.16 237.9,-388.82 460.3,-450.87 0,0 -530.2,-372.95 -782.1,-174.2 -251.9,198.74 -227.8,418.5 -385.8,538.48 -157.9,119.99 -308.2,153.59 -254,55.25 54.3,-98.34 354.9,-249.68 415.5,-450.37 60.5,-200.68 123.9,-341.07 -158.4,-231.39 -282.2,109.67 -709,430.25 -674.7,679.69 34.2,249.47 34.2,249.47 34.2,249.47"
           style="fill:#599dad;fill-opacity:1;fill-rule:nonzero;stroke:none"
           id="path56" /></g><g
         id="g58"
         transform="scale(1.20604)"><path
           d="m 16300,10156 c 0,0 -1664.6,442.6 -2143.6,45.8 0,0 -137.2,-227.23 -439.9,-394.11 l -63.4,-98.37 c 0,0 360,241.35 468.3,236.48 0,0 -29,631.6 2178.6,210.2"
           style="fill:#599dad;fill-opacity:1;fill-rule:nonzero;stroke:none"
           id="path60" /></g><g
         id="g62"
         transform="scale(1.03266)"><path
           d="m 16019.5,11454.4 c 0,0 -491,-216.6 -645.4,-766.3 l 74.9,-24 c 0,0 263.8,544.9 557.4,715.1 293.6,170.3 13.1,75.2 13.1,75.2"
           style="fill:#599dad;fill-opacity:1;fill-rule:nonzero;stroke:none"
           id="path64" /></g><g
         id="g66"
         transform="scale(1.14778)"><path
           d="m 12701.8,11842.8 c 0,0 -977.4,509.8 -550.5,1253.8 0,0 345.5,459.4 726.7,586.2 0,0 -172.7,-1095.7 33.2,-1115.2 205.9,-19.6 104.4,1234.8 104.4,1234.8 0,0 998.2,517.2 1396.7,490.6 0,0 -596.5,-1082.7 -392.2,-1050.9 204.4,31.7 877.4,1129.5 877.4,1129.5 0,0 1032.6,223.2 1217.5,-387.1 185,-610.4 -75.1,-926 -227.7,-969.1 -152.7,-43 -1140.1,-59.6 -1110.7,-187 29.5,-127.4 702.2,-312.7 1070.4,-186.2 0,0 -380,-1024.9 -919.9,-989.7 -539.9,35.2 -716.4,363.6 -1050.6,379.3 -334,15.7 -574.9,-81.3 -405.5,-166.1 169.3,-84.7 731.5,-7.6 1007.5,-228.4 276,-220.9 498.2,-355.4 1.3,-472.8 -496.9,-117.5 -1396.2,-80.1 -1587.1,299.1 -190.9,379.2 -190.9,379.2 -190.9,379.2"
           style="fill:#86d1cd;fill-opacity:1;fill-rule:nonzero;stroke:none"
           id="path68" /></g><g
         id="g70"
         transform="scale(1.10176)"><path
           d="m 16300,14353.6 c 0,0 -2777.4,-991.7 -3067.6,-2016.1 0,0 26.8,-453.7 -238.1,-982.8 l 6,-200.3 c 0,0 273.5,689.8 430.9,788 0,0 -653.8,862.7 2868.8,2411.2"
           style="fill:#6bb7bf;fill-opacity:1;fill-rule:nonzero;stroke:none"
           id="path72" /></g><path
         d="m 14316.6,12510.1 c 0,0 -454.9,-737.7 -157,-1610.4 l 121.6,36.5 c 0,0 -147.9,966.6 86.8,1462 234.8,495.3 -51.4,111.9 -51.4,111.9"
         style="fill:#6bb7bf;fill-opacity:1;fill-rule:nonzero;stroke:none"
         id="path74" /><g
         id="g76"
         transform="scale(1.06536)"><path
           d="M 8914.8,11305.4 V 1674.09 H 16300 V 11305.4 H 8914.8"
           style="fill:#9abcef;fill-opacity:1;fill-rule:nonzero;stroke:none"
           id="path78" /></g><g
         id="g80"
         transform="scale(1.07302)"><path
           d="M 9090.86,11224.6 V 1662.13 H 16300 V 11224.6 H 9090.86"
           style="fill:#e9f3fe;fill-opacity:1;fill-rule:nonzero;stroke:none"
           id="path82" /></g><g
         id="g84"
         transform="scale(1.4218)"><path
           d="m 16137.7,1272.12 h -1096.3 c -58.7,49.79 40.6,162.96 144.5,170.55 45.1,3.45 102.2,-5.97 167.3,-19.76 15.2,200.38 101.3,1101.21 426,1064.99 365.1,-40.52 0,-396.68 -103.2,-607.54 -76.4,-156.21 -157.1,-380.22 -194,-485.93 29.7,-6.4 60.4,-12.73 91.7,-18.5 48.4,148.61 228.5,648.4 457.4,619.28 268.9,-34.11 160.8,-234.49 -29.7,-353.42 -139.9,-87.5 -311.5,-211.78 -393.1,-271.84 69.2,-11.32 141.3,-18.92 214.4,-17.23 187.9,4.5 279.5,-50.85 315,-80.6"
           style="fill:#a8d29f;fill-opacity:1;fill-rule:nonzero;stroke:none"
           id="path86" /></g><g
         id="g88"
         transform="scale(1.08956)"><path
           d="m 16052.7,11054.4 c -0.1,-0.1 -0.1,-0.1 -0.1,-0.1 H 8952.83 c 39.27,536.9 -19.89,926.7 -114.71,1207.1 -182.07,539.1 -495.87,674.3 -495.87,674.3 H 15038 c 571.4,0 1014.6,-344.3 1135.2,-801.3 4.5,-17.2 8.7,-34.3 12.4,-51.4 114.4,-522.8 -128.3,-1019.1 -132.9,-1028.6"
           style="fill:#e9f3fe;fill-opacity:1;fill-rule:nonzero;stroke:none"
           id="path90" /></g><g
         id="g92"
         transform="scale(1.08956)"><path
           d="m 16052.7,11054.4 c -0.1,-0.1 -0.1,-0.1 -0.1,-0.1 H 8952.83 c 39.27,536.9 -19.89,926.7 -114.71,1207.1 725.57,-132.9 2522.58,-416 4446.08,-368.3 1244.3,30.9 2227.7,114.1 2901.4,189.9 114.4,-522.8 -128.3,-1019.1 -132.9,-1028.6"
           style="fill:#d8e8fd;fill-opacity:1;fill-rule:nonzero;stroke:none"
           id="path94" /></g><path
         d="m 15446.8,9678.25 h -4102.3 c -42.1,0 -76.5,34.47 -76.5,76.59 v 39.27 c 0,42.12 34.4,76.57 76.5,76.57 h 4102.3 c 42.1,0 76.6,-34.45 76.6,-76.57 v -39.27 c 0,-42.12 -34.5,-76.59 -76.6,-76.59"
         style="fill:#bbd5fc;fill-opacity:1;fill-rule:nonzero;stroke:none"
         id="path96" /><path
         d="m 13859.1,9354.51 h -2530.7 c -33.2,0 -60.4,27.21 -60.4,60.45 v 71.53 c 0,33.26 27.2,60.45 60.4,60.45 h 2530.7 c 33.2,0 60.4,-27.19 60.4,-60.45 v -71.53 c 0,-33.24 -27.2,-60.45 -60.4,-60.45"
         style="fill:#bbd5fc;fill-opacity:1;fill-rule:nonzero;stroke:none"
         id="path98" /><path
         d="m 10872.8,9385.67 v 393.05 h -51.8 c -31.5,0 -47.2,13.08 -47.2,39.3 0,18.86 12.3,32.23 37,40.09 12.5,4.18 32.6,7.34 60.1,9.44 27.5,2.09 49.6,3.13 66.4,3.13 16.2,0 26.5,-3.28 30.7,-9.82 4.1,-6.55 6.3,-23.18 6.3,-49.91 v -425.28 h 53.4 c 34.6,0 51.9,-14.93 51.9,-44.81 0,-31.44 -17.3,-47.16 -51.9,-47.16 h -215.4 c -15.2,0 -27.9,4.05 -38.1,12.18 -10.2,8.12 -15.3,19.52 -15.3,34.2 0,30.38 17.5,45.59 52.6,45.59 h 61.3"
         style="fill:#bbd5fc;fill-opacity:1;fill-rule:nonzero;stroke:none"
         id="path100" /><path
         d="m 15446.8,7651.8 h -4102.3 c -42.1,0 -76.5,34.4 -76.5,76.6 v 39.2 c 0,42.1 34.4,76.6 76.5,76.6 h 4102.3 c 42.1,0 76.6,-34.5 76.6,-76.6 v -39.2 c 0,-42.2 -34.5,-76.6 -76.6,-76.6"
         style="fill:#d2e4fd;fill-opacity:1;fill-rule:nonzero;stroke:none"
         id="path102" /><path
         d="m 13859.1,7328 h -2530.7 c -33.2,0 -60.4,27.2 -60.4,60.5 v 71.5 c 0,33.3 27.2,60.5 60.4,60.5 h 2530.7 c 33.2,0 60.4,-27.2 60.4,-60.5 v -71.5 c 0,-33.3 -27.2,-60.5 -60.4,-60.5"
         style="fill:#d2e4fd;fill-opacity:1;fill-rule:nonzero;stroke:none"
         id="path104" /><path
         d="m 11087.7,7367.3 c 0,-26.2 -18.3,-39.3 -54.9,-39.3 H 10805 c -32.9,0 -49.4,13.2 -49.4,39.6 0,8.4 4.4,18.1 13.2,29.2 13,14.8 32,37.1 57,66.7 38,47.7 69.7,88.9 95.2,123.7 8.8,11.5 21.3,29.1 37.5,52.8 13.4,23.6 20.1,43.5 20.1,59.7 0,18.1 -5.8,33 -17.3,44.8 -11.6,11.8 -26.4,17.7 -44.5,17.7 -17.6,0 -32.9,-5.5 -45.9,-16.6 -8.8,-7.5 -15.7,-21.3 -20.8,-41.7 -6.5,-26.4 -10.6,-41.7 -12.5,-45.9 -6.9,-14.8 -18.3,-22.2 -34,-22.2 -13.9,0 -24.8,5.1 -32.7,15.3 -7.4,8.8 -11.1,20.4 -11.1,34.7 0,16.2 2.5,32.7 7.6,49.3 11.2,35.7 30.8,63 59.1,82 26.8,18.1 59.5,27.1 97.9,27.1 42.2,0 77.4,-12.8 105.6,-38.3 29.2,-26.9 43.8,-61.2 43.8,-102.9 0,-31.1 -10.4,-63.1 -31.3,-96.1 -11.5,-18.1 -35.4,-50.1 -71.5,-96 -18.5,-23.7 -47.7,-58 -87.5,-103 h 150 c 36.1,0 54.2,-13.5 54.2,-40.6"
         style="fill:#d2e4fd;fill-opacity:1;fill-rule:nonzero;stroke:none"
         id="path106" /><path
         d="m 15446.8,5961.3 h -4102.3 c -42.1,0 -76.5,34.5 -76.5,76.6 v 39.3 c 0,42.1 34.4,76.6 76.5,76.6 h 4102.3 c 42.1,0 76.6,-34.5 76.6,-76.6 v -39.3 c 0,-42.1 -34.5,-76.6 -76.6,-76.6"
         style="fill:#d2e4fd;fill-opacity:1;fill-rule:nonzero;stroke:none"
         id="path108" /><path
         d="m 13859.1,5637.6 h -2530.7 c -33.2,0 -60.4,27.2 -60.4,60.4 v 71.6 c 0,33.2 27.2,60.4 60.4,60.4 h 2530.7 c 33.2,0 60.4,-27.2 60.4,-60.4 V 5698 c 0,-33.2 -27.2,-60.4 -60.4,-60.4"
         style="fill:#d2e4fd;fill-opacity:1;fill-rule:nonzero;stroke:none"
         id="path110" /><path
         d="m 11087.7,5798.8 c 0,-49.2 -17.3,-88.8 -51.8,-118.6 -32.7,-28.4 -74.1,-42.6 -124.3,-42.6 -38.8,0 -72,9.2 -99.4,27.7 -43.6,29.3 -65.4,64.6 -65.4,105.8 0,11.8 3.8,22 11.4,30.5 7.6,8.5 17.3,12.8 29.1,12.8 12.3,0 23.9,-8.3 34.8,-24.8 17.5,-27.5 27.7,-42.7 30.6,-45.5 15.6,-16.6 35.7,-24.8 60.3,-24.8 33.2,0 56.8,12.3 71,36.9 6.6,12.3 10,27.9 10,46.9 0,46.3 -27.3,72.1 -81.7,77.3 -30.8,2.9 -46.2,15.9 -46.2,39.1 0,17 9,29.1 26.8,36.2 33.4,12.3 50.4,18.7 50.8,19.2 17.9,11.8 26.8,32.4 26.8,61.8 0,17.5 -5.2,31.3 -15.5,41.5 -10.4,10.2 -24.3,15.3 -41.8,15.3 -21.7,0 -38.7,-5.2 -50.9,-15.6 -10.4,-9 -19.2,-24.4 -26.2,-46.2 -5.7,-16.6 -16.5,-24.8 -32.6,-24.8 -11.3,0 -20.6,4.9 -27.9,14.9 -7.3,9.9 -11,20.8 -11,32.6 0,14.7 4,29.4 12.1,44.1 13.2,24.6 33.6,43.7 61,57.5 25.1,12.8 52.6,19.1 82.4,19.1 40.2,0 73.7,-12.1 100.5,-36.5 26.7,-24.4 40.1,-56.5 40.1,-96.2 0,-47.9 -19.9,-85.7 -59.6,-113.7 57.7,-23.2 86.6,-66.5 86.6,-129.9"
         style="fill:#d2e4fd;fill-opacity:1;fill-rule:nonzero;stroke:none"
         id="path112" /><path
         d="m 14969,11362.8 h -2555.6 c -43.7,0 -79.5,35.7 -79.5,79.5 v 64.5 c 0,43.7 35.8,79.5 79.5,79.5 H 14969 c 43.7,0 79.5,-35.8 79.5,-79.5 v -64.5 c 0,-43.8 -35.8,-79.5 -79.5,-79.5"
         style="fill:#bbd5fc;fill-opacity:1;fill-rule:nonzero;stroke:none"
         id="path114" /><path
         d="m 15635.4,11018.1 h -3888.3 c -53.7,0 -97.6,43.9 -97.6,97.5 v 28.5 c 0,53.6 43.9,97.5 97.6,97.5 h 3888.3 c 53.6,0 97.5,-43.9 97.5,-97.5 v -28.5 c 0,-53.6 -43.9,-97.5 -97.5,-97.5"
         style="fill:#bbd5fc;fill-opacity:1;fill-rule:nonzero;stroke:none"
         id="path116" /><g
         id="g118"
         transform="scale(1.01575)"><path
           d="m 13183.9,8506.7 c -829.7,0 -1617,104.11 -2203.8,252.91 -593,150.33 -912.4,396.04 -912.4,613.98 0,197.52 260.3,379.19 752.7,525.36 v 0 c -471.9,-140.09 -724.3,-345.79 -724.3,-525.36 0,-199.27 327.2,-396.52 897.6,-541.14 584.9,-148.27 1362.6,-229.94 2190.2,-229.94 827.4,0 1605.3,81.67 2190.1,229.94 570.4,144.62 897.5,341.87 897.5,541.14 0,211.03 -344.4,473.3 -899,684.41 -630.5,240.1 -1407.8,329.2 -2188.6,329.2 -1466,0 -2069.4,-171.1 -2593.1,-385.6 v 0 c 525.9,215.4 1121.9,459.5 2593.1,459.5 783.9,0 1564.5,-132.8 2198.1,-374 566.2,-215.66 918,-489.04 918,-713.51 0,-217.94 -326.6,-420.75 -919.5,-571.09 -586.9,-148.79 -1367,-295.8 -2196.6,-295.8"
           style="fill:#c65447;fill-opacity:1;fill-rule:nonzero;stroke:none"
           id="path120" /></g><g
         id="g122"
         transform="scale(1.13551)"><path
           d="m 16300,5869.79 c 0,0 -24.5,-237.6 -51.3,-282.52 -26.8,-45 -140.9,-188.55 -189.6,-216.73 -48.6,-28.18 29.7,189.17 19.9,231.53 -10,42.27 -40.1,-77.24 -61.5,-80.05 -21.5,-2.82 -16,104.8 -16.7,143.9 -0.8,39.18 104.2,135.8 141.3,219.1 37,83.32 157.9,-15.23 157.9,-15.23"
           style="fill:#ffb27d;fill-opacity:1;fill-rule:nonzero;stroke:none"
           id="path124" /></g><path
         d="m 15194.4,9153.32 -62,116.97 c 0,0 30.8,208.47 -230.4,340.33 0,0 -95.5,38.87 -149.4,-38.99 -49.6,-71.72 94.6,-58.76 86.9,-181.44 -7.8,-122.68 50.5,-194.67 131.5,-234.63 l 67,-77.61 156.4,75.37"
         style="fill:#ffb27d;fill-opacity:1;fill-rule:nonzero;stroke:none"
         id="path126" /><g
         id="g128"
         transform="scale(1.08361)"><path
           d="m 16300,8705.16 c 0,0 -207,-1015.93 -1346.1,-1347.97 -355.6,-103.64 -1163.4,1067.1 -1163.4,1067.1 0,0 28.3,107.92 206.3,83.13 0,0 786.6,-520.74 885.6,-577.31 87.9,-50.19 665.8,645.25 929.1,757.44 263.5,112.17 488.5,17.61 488.5,17.61"
           style="fill:#e58638;fill-opacity:1;fill-rule:nonzero;stroke:none"
           id="path130" /></g><path
         d="m 15524.5,9473.43 -35,-227.88 -1146.3,176.06 35,227.88 1146.3,-176.06"
         style="fill:#c65447;fill-opacity:1;fill-rule:nonzero;stroke:none"
         id="path132" /><path
         d="m 14094.2,9576.48 249,-154.87 35,227.88 z"
         style="fill:#ffb27d;fill-opacity:1;fill-rule:nonzero;stroke:none"
         id="path134" /><path
         d="m 15646.2,9377.37 -11.1,-72.05 c -6.8,-44.31 -48.3,-74.71 -92.6,-67.91 l -53,8.14 35,227.88 57.7,-8.86 c 41.7,-6.42 70.4,-45.46 64,-87.2"
         style="fill:#ffb27d;fill-opacity:1;fill-rule:nonzero;stroke:none"
         id="path136" /><g
         id="g138"
         transform="scale(1.18341)"><path
           d="m 16170.6,2122.76 c 0,0 129.4,-118.04 104.2,-201.96 -25.2,-83.91 -142,-139.85 -157.8,-242.35 -15.7,-102.58 -78.9,-158.52 -135.7,-158.52 -56.8,0 -270.9,0 -270.9,0 0,0 -41.8,72.16 59.2,93.88 101,21.8 139.1,142.3 132.8,254.18 -6.3,111.88 9.5,261.02 9.5,261.02 l 214.5,49.69 44.2,-55.94"
           style="fill:#233862;fill-opacity:1;fill-rule:nonzero;stroke:none"
           id="path140" /></g><g
         id="g142"
         transform="scale(1.06045)"><path
           d="m 16274.2,2028.1 c 0,0 25.8,-299.87 -37.6,-331.08 l -811.2,1.6 c 0,0 0,93.64 130.2,114.48 130.3,20.84 359.3,97.13 398,267.06 38.8,169.93 320.6,-52.06 320.6,-52.06"
           style="fill:#233862;fill-opacity:1;fill-rule:nonzero;stroke:none"
           id="path144" /></g><g
         id="g146"
         transform="scale(1.09199)"><path
           d="m 15138.9,6083.68 c 0,0 41.6,-510.54 90.4,-1124.19 66.4,-833.62 146.2,-1857.62 154.1,-2051.58 13.7,-336.91 68.4,-875.74 68.4,-875.74 0,0 130,-127.94 390,-74 0,0 231.6,769.15 297.9,1582.99 1,13.28 2,26.74 3,40.2 61.6,828.49 157.3,2573.01 157.3,2573.01 l -1161.1,-70.69"
           style="fill:#2b478b;fill-opacity:1;fill-rule:nonzero;stroke:none"
           id="path148" /></g><g
         id="g150"
         transform="scale(1.09199)"><path
           d="m 15138.9,6083.68 c 0,0 41.6,-510.54 90.4,-1124.19 l 910.4,-1418.33 c 1,13.28 2,26.74 3,40.2 61.6,828.49 157.3,2573.01 157.3,2573.01 l -1161.1,-70.69"
           style="fill:#233862;fill-opacity:1;fill-rule:nonzero;stroke:none"
           id="path152" /></g><g
         id="g154"
         transform="scale(1.17402)"><path
           d="m 14257.6,5602.21 c 0,0 696.8,-1719.73 1154.9,-2527.9 458,-808.24 601.2,-1033.71 601.2,-1033.71 0,0 262.5,103.32 286.3,173.85 0,0 -175.2,1560.19 -481.9,1940.51 -173.4,214.9 -377,859.87 -386.6,1085.42 -9.5,225.55 -62,671.96 -62,671.96 l -1111.9,-310.13"
           style="fill:#2b478b;fill-opacity:1;fill-rule:nonzero;stroke:none"
           id="path156" /></g><g
         id="g158"
         transform="scale(1.09294)"><path
           d="m 16300,8864.63 c 0,0 -506.3,-244.33 -798.3,-153.67 0,0 71.8,90.64 197.6,158.09 -10.1,58.6 -17.9,109.45 -22.5,152.56 -12.3,99.52 -12.3,155.89 -12.3,155.89 l 195.3,153.66 185.3,147.04 c -14.6,-413.47 254.9,-613.57 254.9,-613.57"
           style="fill:#ffb27d;fill-opacity:1;fill-rule:nonzero;stroke:none"
           id="path160" /></g><g
         id="g162"
         transform="scale(1.11091)"><path
           d="m 16298.8,6155.05 c 1.2,-30.42 -64,-65.26 -92.7,-78.31 -213.2,-93.53 -412.1,-158.79 -637.4,-180.48 -266.2,-27.19 -581,32.59 -689.3,30.42 -11,0 -20.9,4.32 -29.7,11.98 -7.8,5.4 -13.4,326.31 -7.8,729.76 0,16.38 0,32.68 1.1,48.97 v 5.49 c 2.2,157.71 7.7,322.98 15.5,488.34 15.5,363.27 44.1,713.49 92.7,907.09 58.6,228.41 191.1,379.59 311.5,489.45 l 99.4,87.02 c 99.5,-19.59 204.4,-14.15 309.3,36.96 114.9,55.49 238.6,115.3 258.5,100.09 150.3,-109.85 251.9,-356.76 306,-672.19 30.9,-181.64 46.4,-385.04 45.3,-598.21 0,-78.27 -2.3,-158.84 -6.7,-238.23 -26.4,-430.64 0,-804.84 15.5,-1021.24 4.4,-63.1 7.7,-112.07 8.8,-146.91"
           style="fill:#ee9849;fill-opacity:1;fill-rule:nonzero;stroke:none"
           id="path164" /></g><g
         id="g166"
         transform="scale(1.11023)"><path
           d="m 16300,6178.64 c -1745.5,3.52 -321.9,1894.16 -321.9,1894.16 l 282.8,91.84 c 22.3,-194.18 33.5,-411.61 32.7,-639.51 0,-83.68 -1.5,-169.79 -4.8,-254.64 -19.2,-460.44 0,-860.45 11.2,-1091.85"
           style="fill:#e58638;fill-opacity:1;fill-rule:nonzero;stroke:none"
           id="path168" /></g><g
         id="g170"
         transform="scale(1.07607)"><path
           d="m 16300,9466.18 c 0,0 -130,-236.91 -377.5,-303.17 -12.5,101.07 -12.5,158.32 -12.5,158.32 l 198.4,156.08 191.6,-11.23"
           style="fill:#ed985f;fill-opacity:1;fill-rule:nonzero;stroke:none"
           id="path172" /></g><g
         id="g174"
         transform="scale(1.08906)"><path
           d="m 15631,9216.99 c 0,0 484.7,-79.3 530.3,218.72 45.4,298.03 138.7,488.52 -168.9,551.73 -307.6,63.26 -385.3,-41.55 -425.1,-137.39 -39.7,-95.84 -61.3,-604.76 63.7,-633.06"
           style="fill:#ffb27d;fill-opacity:1;fill-rule:nonzero;stroke:none"
           id="path176" /></g><g
         id="g178"
         transform="scale(1.09445)"><path
           d="m 16256.9,9973.69 c 4.4,5.01 14.4,9.06 36.9,10.29 0,0 -17.9,11.24 -42,11.84 -4.7,31.28 -21.3,86.58 -75.1,99.98 0,0 28.9,-15.4 32.7,-48.6 -62.4,64 -195.8,110.6 -565.5,81.4 -487.2,-38.5 -326.7,-350.42 -263.6,-387.61 63.1,-37.18 221.8,64.76 339.4,55.44 117.5,-9.33 139.8,-179.15 179.7,-202.45 39.9,-23.3 24.2,17.9 78.2,42.28 53.9,24.38 59,-65 43.4,-123.12 -15.6,-58.1 58.5,-134.77 58.5,-134.77 0,0 0,0 74.9,80.67 75,80.66 145.6,422.32 111.5,495.14 -3,6.45 -6,12.95 -9,19.51"
           style="fill:#2c3a64;fill-opacity:1;fill-rule:nonzero;stroke:none"
           id="path180" /></g><g
         id="g182"
         transform="scale(1.14955)"><path
           d="m 15394.2,8537.26 c 0,0 290.6,-137.61 429.9,-349.15 216.1,-328.13 466.7,-1524.04 471.3,-1634.78 4.6,-110.73 -182.9,-892.51 -182.9,-892.51 0,0 -190.1,12.52 -239.2,108.47 0,0 38,803.27 13.9,854.94 -24,51.68 -792.6,1077.54 -706.2,1296.46 86.4,218.91 213.2,616.57 213.2,616.57"
           style="fill:#ee9849;fill-opacity:1;fill-rule:nonzero;stroke:none"
           id="path184" /></g><path
         d="m 15131.3,9275.85 c 0,0 18.1,71.75 -31.7,104 -49.7,32.26 -95.5,119.97 -116.5,108.09 -43.5,-24.61 23.8,-101.15 11.5,-196.62 -4.3,-33.43 73.5,-121.03 136.7,-15.47"
         style="fill:#ffb27d;fill-opacity:1;fill-rule:nonzero;stroke:none"
         id="path186" /><path
         d="m 7014.4,2480.6 c 0,0 -784.65,2009.2 -1334.95,1689.3 -550.29,-320 1334.95,-1689.3 1334.95,-1689.3"
         style="fill:#a8d29f;fill-opacity:1;fill-rule:nonzero;stroke:none"
         id="path188" /><path
         d="m 6626.46,2480.6 c 0,0 -1036.59,895.8 -1510.09,729.5 -473.52,-166.4 1510.09,-729.5 1510.09,-729.5"
         style="fill:#a8d29f;fill-opacity:1;fill-rule:nonzero;stroke:none"
         id="path190" /><g
         id="g192"
         transform="scale(1.12893)"><path
           d="m 15591.9,1940.95 c 0,0 211.6,735.74 459.8,648.93 248.3,-86.81 -459.8,-648.93 -459.8,-648.93"
           style="fill:#a8d29f;fill-opacity:1;fill-rule:nonzero;stroke:none"
           id="path194" /></g><g
         id="g196"
         transform="scale(1.14712)"><path
           d="m 15534.8,1949.67 c 0,0 531.6,348.96 648.4,241.13 116.8,-107.92 -648.4,-241.13 -648.4,-241.13"
           style="fill:#a8d29f;fill-opacity:1;fill-rule:nonzero;stroke:none"
           id="path198" /></g><path
         d="m 15736.3,4015 h -4756.7 c -31.9,0 -57.9,26 -57.9,57.9 v 0 c 0,31.8 26,57.8 57.9,57.8 h 4756.7 c 31.8,0 57.9,-26 57.9,-57.8 v 0 c 0,-31.9 -26.1,-57.9 -57.9,-57.9"
         style="fill:#d2e4fd;fill-opacity:1;fill-rule:nonzero;stroke:none"
         id="path200" /><path
         d="m 15736.3,3783.3 h -4756.7 c -31.9,0 -57.9,26 -57.9,57.9 v 0 c 0,31.8 26,57.8 57.9,57.8 h 4756.7 c 31.8,0 57.9,-26 57.9,-57.8 v 0 c 0,-31.9 -26.1,-57.9 -57.9,-57.9"
         style="fill:#d2e4fd;fill-opacity:1;fill-rule:nonzero;stroke:none"
         id="path202" /><path
         d="m 15736.3,3526.5 h -4756.7 c -31.9,0 -57.9,26 -57.9,57.9 v 0 c 0,31.8 26,57.9 57.9,57.9 h 4756.7 c 31.8,0 57.9,-26.1 57.9,-57.9 v 0 c 0,-31.9 -26.1,-57.9 -57.9,-57.9"
         style="fill:#d2e4fd;fill-opacity:1;fill-rule:nonzero;stroke:none"
         id="path204" /><path
         d="m 15111.8,3269.7 h -4136.1 c -29.7,0 -54,24.4 -54,54.1 v 7.7 c 0,29.7 24.3,54 54,54 h 4136.1 c 29.7,0 54.1,-24.3 54.1,-54 v -7.7 c 0,-29.7 -24.4,-54.1 -54.1,-54.1"
         style="fill:#d2e4fd;fill-opacity:1;fill-rule:nonzero;stroke:none"
         id="path206" /><g
         id="g208"
         transform="scale(1.5836)"><path
           d="M 16285.5,1110.39 H 1389.83 c -7.99,0 -14.53,6.5 -14.53,14.52 v 2.71 c 0,7.96 6.54,14.53 14.53,14.53 H 16285.5 c 8,0 14.5,-6.57 14.5,-14.53 v -2.71 c 0,-8.02 -6.5,-14.52 -14.5,-14.52"
           style="fill:#1c468a;fill-opacity:1;fill-rule:nonzero;stroke:none"
           id="path210" /></g></g></g></svg>
