<svg id="Layer_1" enable-background="new 0 0 480 480" height="512" viewBox="0 0 480 480" width="512" xmlns="http://www.w3.org/2000/svg"><path d="m279.115 365.516c-28.754 24.206-72.253 16.774-91.342-15.47 12.608-8.325 20.844-21.886 22.057-37.259 64.764 19.066 130.095-26.079 136.637-92.025.591-1.555.655-2.991.356-4.47.244-4.269.177-.396.177-71.061 0-30.877-25.121-55.997-56-55.997h-102c-30.879 0-56 25.122-56 56v63.708c-11.205-2.805-20.31-11.385-23.371-22.754-23.297-86.556 43.126-170.188 130.376-170.188 88.658 0 153.163 83.959 130.521 169.606-1.129 4.271 1.418 8.65 5.689 9.779 4.276 1.129 8.65-1.418 9.779-5.689 25.421-96.154-47.334-190.355-147.081-189.693-97.862.691-170.611 94.233-144.733 190.345 5.039 18.716 20.946 32.38 39.914 35.081 5.17 35.939 28.266 66.166 59.907 81.295v2.107c0 18.443-14.944 33.341-33.427 33.341-45.646 0-82.573 36.929-82.573 82.571v47.257c0 4.418 3.582 8 8 8s8-3.582 8-8v-47.257c0-36.795 29.775-66.572 66.573-66.571 4.22 0 8.414-.532 12.506-1.593 23.505 42.007 79.477 52.209 116.34 21.177 3.38-2.845 3.813-7.892.968-11.272s-7.894-3.812-11.273-.968zm-130.115-155.391v-64.891c0-22.056 17.944-40 40-40h102c22.056 0 40 17.942 40 39.997v64.895c0 50.178-40.822 91-91 91s-91-40.823-91-91.001zm253 214.618v47.257c0 4.418-3.582 8-8 8s-8-3.582-8-8v-47.257c0-36.794-29.775-66.572-66.573-66.571-17.41 0-33.208-8.87-42.258-23.728-2.299-3.773-1.104-8.695 2.67-10.994 3.772-2.3 8.695-1.103 10.994 2.67 6.123 10.051 16.812 16.051 28.594 16.051 45.637 0 82.573 36.93 82.573 82.572z"/></svg>