<svg id="Layer_1" enable-background="new 0 0 480 480" height="512" viewBox="0 0 480 480" width="512" xmlns="http://www.w3.org/2000/svg"><path d="m402 424.743v47.257c0 4.418-3.582 8-8 8s-8-3.582-8-8v-47.257c0-24.449-13.11-45.846-33-57.503v104.76c0 4.418-3.582 8-8 8s-8-3.582-8-8v-111.477c-5.658-1.539-11.552-2.351-17.573-2.351-17.41 0-33.208-8.87-42.258-23.728-2.299-3.773-1.104-8.695 2.67-10.994 3.772-2.3 8.695-1.103 10.994 2.67 6.123 10.051 16.812 16.051 28.594 16.051 45.634 0 82.573 36.93 82.573 82.572zm-111.612-58.26c2.846 3.38 2.412 8.427-.968 11.272-36.841 31.013-92.818 20.862-116.34-21.177-11.286 2.924-16.826.102-31.08 4.219v111.203c0 4.418-3.582 8-8 8s-8-3.582-8-8v-104.166c-19.326 11.788-32 32.855-32 56.909v47.257c0 4.418-3.582 8-8 8s-8-3.582-8-8v-47.257c0-45.634 36.929-82.571 82.571-82.571 18.462 0 33.429-14.877 33.429-33.341v-2.107c-34.919-16.697-59.429-51.783-60.923-92.643-14.37-3.456-25.077-16.318-25.077-31.621v-49.96c0-73.061 59.439-132.5 132.5-132.5s132.5 59.439 132.5 132.5v49.96c0 4.418-3.582 8-8 8s-8-3.582-8-8v-49.96c0-64.238-52.262-116.5-116.5-116.5s-116.5 52.262-116.5 116.5v49.96c0 6.348 3.656 11.865 9 14.636v-51.863c0-30.878 25.121-56 56-56h102c30.879 0 56 25.12 56 55.997 0 .178.002 65.555-.003 65.733-.547 70.614-68.809 121.947-137.167 101.823-1.21 15.34-9.426 28.918-22.057 37.259 19.064 32.203 62.557 39.702 91.342 15.47 3.378-2.843 8.428-2.412 11.273.968zm-50.388-65.358c50.178 0 91-40.822 91-91v-64.895c0-22.055-17.944-39.997-40-39.997h-102c-22.056 0-40 17.944-40 40v64.891c0 50.179 40.822 91.001 91 91.001z"/></svg>