<?xml version="1.0" encoding="iso-8859-1"?>
<!-- Generator: Adobe Illustrator 19.0.0, SVG Export Plug-In . SVG Version: 6.00 Build 0)  -->
<svg version="1.1" id="Capa_1" xmlns="http://www.w3.org/2000/svg" xmlns:xlink="http://www.w3.org/1999/xlink" x="0px" y="0px"
	 viewBox="0 0 512 512" style="enable-background:new 0 0 512 512;" xml:space="preserve">
<g>
	<g>
		<path d="M384,213.333H128c-29.419,0-53.333,23.936-53.333,53.333v192C74.667,488.064,98.581,512,128,512h256
			c29.419,0,53.333-23.936,53.333-53.333v-192C437.333,237.269,413.419,213.333,384,213.333z M416,458.667c0,17.643-14.357,32-32,32
			H128c-17.643,0-32-14.357-32-32v-192c0-17.643,14.357-32,32-32h256c17.643,0,32,14.357,32,32V458.667z"/>
	</g>
</g>
<g>
	<g>
		<path d="M384,213.333H138.667v-74.667c0-64.704,52.651-117.333,117.333-117.333s117.333,52.629,117.333,117.333
			c0,5.888,4.779,10.667,10.667,10.667c5.888,0,10.667-4.779,10.667-10.667C394.667,62.208,332.459,0,256,0
			S117.333,62.208,117.333,138.667V224c0,5.888,4.779,10.667,10.667,10.667h256c5.888,0,10.667-4.779,10.667-10.667
			S389.888,213.333,384,213.333z"/>
	</g>
</g>
<g>
	<g>
		<path d="M256,362.667c-5.888,0-10.667,4.779-10.667,10.667v64c0,5.888,4.779,10.667,10.667,10.667s10.667-4.779,10.667-10.667v-64
			C266.667,367.445,261.888,362.667,256,362.667z"/>
	</g>
</g>
<g>
	<g>
		<path d="M256,277.333c-29.419,0-53.333,23.936-53.333,53.333S226.581,384,256,384c29.419,0,53.333-23.936,53.333-53.333
			S285.419,277.333,256,277.333z M256,362.667c-17.643,0-32-14.357-32-32c0-17.643,14.357-32,32-32c17.643,0,32,14.357,32,32
			C288,348.309,273.643,362.667,256,362.667z"/>
	</g>
</g>
<g>
</g>
<g>
</g>
<g>
</g>
<g>
</g>
<g>
</g>
<g>
</g>
<g>
</g>
<g>
</g>
<g>
</g>
<g>
</g>
<g>
</g>
<g>
</g>
<g>
</g>
<g>
</g>
<g>
</g>
</svg>
