<?xml version="1.0" encoding="iso-8859-1"?>
<!-- Generator: Adobe Illustrator 17.1.0, SVG Export Plug-In . SVG Version: 6.00 Build 0)  -->
<!DOCTYPE svg PUBLIC "-//W3C//DTD SVG 1.1//EN" "http://www.w3.org/Graphics/SVG/1.1/DTD/svg11.dtd">
<svg version="1.1" id="Capa_1" xmlns="http://www.w3.org/2000/svg" xmlns:xlink="http://www.w3.org/1999/xlink" x="0px" y="0px"
	 viewBox="0 0 442 442" style="enable-background:new 0 0 442 442;" xml:space="preserve">
<path d="M442,360.75V81.25c0-5.175-1.992-9.881-5.229-13.436c-0.049-0.058-0.104-0.113-0.155-0.171
	c-3.654-3.922-8.846-6.393-14.616-6.393H20c-5.763,0-10.949,2.465-14.602,6.378c-0.056,0.064-0.117,0.125-0.172,0.189
	C1.991,71.372,0,76.077,0,81.25v279.5c0,5.176,1.993,9.884,5.231,13.439c0.044,0.053,0.094,0.102,0.14,0.154
	c3.654,3.93,8.852,6.407,14.629,6.407h402c5.77,0,10.962-2.471,14.616-6.393c0.051-0.058,0.106-0.112,0.155-0.171
	C440.008,370.631,442,365.925,442,360.75z M98.04,279.059c-3.983-3.825-10.314-3.696-14.139,0.288L20,345.897V96.103L139.924,221
	l-32.395,33.739c-3.825,3.983-3.696,10.314,0.288,14.139c1.938,1.861,4.433,2.787,6.924,2.787c2.627,0,5.251-1.029,7.215-3.074
	l31.832-33.152l46.147,48.061c5.588,5.82,13.069,9.025,21.065,9.025s15.477-3.206,21.065-9.025l46.147-48.061L408.535,360.75H33.465
	l64.862-67.552C102.152,289.215,102.023,282.884,98.04,279.059z M227.639,269.648c-1.781,1.855-4.139,2.877-6.639,2.877
	s-4.857-1.022-6.639-2.877L33.465,81.25h375.069L227.639,269.648z M302.076,221L422,96.103l0.002,249.797L302.076,221z"/>
<g>
</g>
<g>
</g>
<g>
</g>
<g>
</g>
<g>
</g>
<g>
</g>
<g>
</g>
<g>
</g>
<g>
</g>
<g>
</g>
<g>
</g>
<g>
</g>
<g>
</g>
<g>
</g>
<g>
</g>
</svg>
