<?xml version="1.0" encoding="iso-8859-1"?>
<!-- Generator: Adobe Illustrator 19.0.0, SVG Export Plug-In . SVG Version: 6.00 Build 0)  -->
<svg version="1.1" id="Capa_1" xmlns="http://www.w3.org/2000/svg" xmlns:xlink="http://www.w3.org/1999/xlink" x="0px" y="0px"
	 viewBox="0 0 368 368" style="enable-background:new 0 0 368 368;" xml:space="preserve">
<g>
	<g>
		<path d="M280,0H88C74.768,0,64,10.768,64,24v320c0,13.232,10.768,24,24,24h192c13.232,0,24-10.768,24-24V24
			C304,10.768,293.232,0,280,0z M288,344c0,4.408-3.584,8-8,8H88c-4.408,0-8-3.592-8-8V24c0-4.408,3.592-8,8-8h192
			c4.416,0,8,3.592,8,8V344z"/>
	</g>
</g>
<g>
	<g>
		<path d="M232,48h-96c-4.416,0-8,3.584-8,8s3.584,8,8,8h96c4.424,0,8-3.584,8-8S236.424,48,232,48z"/>
	</g>
</g>
<g>
	<g>
		<path d="M184,272c-13.232,0-24,10.768-24,24s10.768,24,24,24s24-10.768,24-24S197.232,272,184,272z M184,304c-4.408,0-8-3.592-8-8
			c0-4.408,3.592-8,8-8s8,3.592,8,8C192,300.408,188.408,304,184,304z"/>
	</g>
</g>
<g>
</g>
<g>
</g>
<g>
</g>
<g>
</g>
<g>
</g>
<g>
</g>
<g>
</g>
<g>
</g>
<g>
</g>
<g>
</g>
<g>
</g>
<g>
</g>
<g>
</g>
<g>
</g>
<g>
</g>
</svg>
