<?xml version="1.0"?>
<svg xmlns="http://www.w3.org/2000/svg" viewBox="0 0 64 64" width="512" height="512"><g id="Contact_email" data-name="Contact email"><path d="M61.6,24.2,55,19.193V3a1,1,0,0,0-1-1H20.126a1,1,0,0,0-.709.294L9.292,12.456A1,1,0,0,0,9,13.162v6.031L2.4,24.2A1,1,0,0,0,2,25V61a1,1,0,0,0,1,1H61a1,1,0,0,0,1-1V25A1,1,0,0,0,61.6,24.2ZM9,28.665,4.61,25.034,9,21.7Zm8.054,9.264C17.029,38.284,17,38.638,17,39a14.889,14.889,0,0,0,2,7.456L4,58.874V27.125ZM45,39a12.938,12.938,0,0,1-3,8.3V45a7.01,7.01,0,0,0-5.66-6.868,6,6,0,1,0-8.68,0A7.01,7.01,0,0,0,22,45v2.3A13,13,0,1,1,45,39ZM24,45a5.006,5.006,0,0,1,5-5h6a5.006,5.006,0,0,1,5,5v4.226a12.923,12.923,0,0,1-16,0Zm8-7a4,4,0,1,1,4-4A4,4,0,0,1,32,38ZM20.122,48.125a14.945,14.945,0,0,0,23.756,0L58.223,60H5.777ZM45,46.456A14.889,14.889,0,0,0,47,39c0-.362-.029-.716-.054-1.071L60,27.125V58.874ZM59.39,25.034,55,28.665V21.7ZM53,30.32l-6.4,5.3a14.984,14.984,0,0,0-29.2,0L11,30.32V14h8a2,2,0,0,0,2-2V4H53ZM12.57,12,19,5.547V12Z"/><path d="M26,9H48a1,1,0,0,0,0-2H26a1,1,0,0,0,0,2Z"/><path d="M48,13H26a1,1,0,0,0,0,2H48a1,1,0,0,0,0-2Z"/><path d="M48,19H16a1,1,0,0,0,0,2H48a1,1,0,0,0,0-2Z"/></g></svg>
