<svg id="Layer_1" height="512" viewBox="0 0 128 128" width="512" xmlns="http://www.w3.org/2000/svg" data-name="Layer 1"><path d="m13.076 97.083a1.75 1.75 0 0 0 1.75-1.75v-28.666a1.75 1.75 0 0 0 -3.5 0v28.666a1.75 1.75 0 0 0 1.75 1.75z"/><path d="m122.38 64.97c.027-.041.046-.085.069-.128a1.037 1.037 0 0 0 .146-.348c.015-.051.035-.1.045-.152a1.755 1.755 0 0 0 0-.685c-.01-.053-.03-.1-.045-.152a1.733 1.733 0 0 0 -.054-.174 1.692 1.692 0 0 0 -.092-.174c-.023-.042-.042-.086-.069-.127a1.75 1.75 0 0 0 -.22-.269l-12.509-12.509a1.75 1.75 0 0 0 -2.475 2.475l9.524 9.523h-53.276a1.75 1.75 0 0 0 0 3.5h53.276l-9.523 9.523a1.75 1.75 0 1 0 2.475 2.475l12.508-12.509a1.75 1.75 0 0 0 .22-.269z"/><path d="m95.424 72.25a1.75 1.75 0 0 0 -1.75 1.75v36.9h-45.041v-93.8h45.041v36.9a1.75 1.75 0 1 0 3.5 0v-38.65a1.75 1.75 0 0 0 -1.75-1.75h-46.791v-7.1a1.75 1.75 0 0 0 -2.461-1.6l-39.807 17.693a1.751 1.751 0 0 0 -1.039 1.6v79.615a1.751 1.751 0 0 0 1.039 1.6l39.807 17.692a1.75 1.75 0 0 0 2.461-1.6v-7.1h46.791a1.75 1.75 0 0 0 1.75-1.75v-38.65a1.75 1.75 0 0 0 -1.75-1.75zm-50.291 46.558-36.307-16.138v-77.34l36.307-16.138z"/></svg>