<?xml version="1.0" encoding="iso-8859-1"?>
<!-- Generator: Adobe Illustrator 19.0.0, SVG Export Plug-In . SVG Version: 6.00 Build 0)  -->
<svg version="1.1" id="Capa_1" xmlns="http://www.w3.org/2000/svg" xmlns:xlink="http://www.w3.org/1999/xlink" x="0px" y="0px"
	 viewBox="0 0 511.999 511.999" style="enable-background:new 0 0 511.999 511.999;" xml:space="preserve">
<g>
	<g>
		<path d="M372.864,251.88c-1.101-31.216-14.291-60.135-37.143-81.429c-22.851-21.296-52.629-32.411-83.843-31.314
			c-31.216,1.101-60.135,14.291-81.429,37.143s-32.415,52.628-31.314,83.844c1.101,31.215,14.291,60.134,37.143,81.429
			c21.819,20.332,49.948,31.39,79.619,31.389c1.403,0,2.813-0.024,4.224-0.075c31.215-1.101,60.134-14.291,81.429-37.144
			C362.845,312.872,373.966,283.096,372.864,251.88z M330.335,325.271c-18.503,19.856-43.63,31.317-70.753,32.274
			c-27.131,0.943-52.996-8.707-72.852-27.21c-19.856-18.502-31.317-43.629-32.274-70.753c-0.957-27.123,8.707-52.995,27.21-72.851
			c18.502-19.856,43.63-31.317,70.754-32.274c1.226-0.043,2.45-0.064,3.672-0.064c25.778-0.001,50.221,9.608,69.178,27.273
			c19.856,18.503,31.317,43.63,32.275,70.754C358.502,279.543,348.838,305.415,330.335,325.271z"/>
	</g>
</g>
<g>
	<g>
		<path d="M406.752,250.685c-1.9-53.698-31.807-101.733-78.642-127.208c-3.849-2.093-8.67-0.506-10.559,3.447l-0.001,0.002
			c-1.751,3.666-0.342,8.072,3.225,10.013c42.079,22.888,68.949,66.046,70.656,114.288c2.636,74.671-55.977,137.568-130.659,140.204
			c-36.175,1.275-70.684-11.611-97.165-36.29c-26.482-24.678-41.767-58.192-43.039-94.369
			c-1.277-36.176,11.611-70.683,36.289-97.165s58.192-41.767,94.368-43.039c12.968-0.455,25.78,0.909,38.184,4.056
			c3.927,0.996,7.943-1.286,9.149-5.155c1.307-4.193-1.167-8.637-5.425-9.716c-13.794-3.498-28.034-5.017-42.446-4.505
			c-40.268,1.416-77.574,18.43-105.044,47.908c-27.471,29.479-41.816,67.89-40.393,108.156
			c1.416,40.268,18.43,77.573,47.908,105.043c28.144,26.228,64.43,40.492,102.703,40.492c1.813,0,3.632-0.032,5.453-0.097
			C344.443,403.817,409.686,333.806,406.752,250.685z"/>
	</g>
</g>
<g>
	<g>
		<path d="M507.151,315.959l-48.473-28.648c1.965-12.772,2.735-25.709,2.289-38.541c-0.242-6.713-0.853-13.644-1.823-20.667
			l48.978-27.846c3.34-1.898,4.758-5.977,3.317-9.538L485,125.356c-1.439-3.561-5.292-5.504-9.015-4.55l-54.56,14.031
			c-11.749-16.025-25.677-30.182-41.511-42.195l14.946-54.325c1.019-3.704-0.862-7.589-4.398-9.089L325.546,1.695
			c-3.536-1.501-7.637-0.15-9.591,3.157l-28.648,48.473c-12.773-1.964-25.711-2.735-38.54-2.289
			c-6.716,0.241-13.644,0.853-20.659,1.822l-27.852-48.98c-1.899-3.339-5.977-4.758-9.538-3.315L125.355,27
			c-3.562,1.44-5.506,5.295-4.55,9.015l14.031,54.559c-16.024,11.749-30.182,25.677-42.196,41.511l-54.326-14.946
			c-3.7-1.019-7.589,0.862-9.089,4.398L1.692,186.452c-1.5,3.537-0.15,7.638,3.158,9.592l48.473,28.638
			c-1.964,12.78-2.735,25.719-2.29,38.55c0.242,6.712,0.854,13.64,1.823,20.658L3.877,311.745c-3.34,1.899-4.757,5.978-3.316,9.538
			l26.438,65.363c1.44,3.561,5.295,5.505,9.015,4.55l54.562-14.031c0.886,1.208,1.789,2.41,2.706,3.604
			c2.646,3.446,7.633,3.997,10.976,1.221c3.159-2.622,3.702-7.279,1.2-10.535c-1.872-2.436-3.678-4.909-5.404-7.393
			c-1.827-2.633-5.099-3.851-8.205-3.053l-53.154,13.668l-21.406-52.925l47.718-27.137c2.785-1.584,4.29-4.731,3.776-7.893
			c-1.333-8.197-2.15-16.286-2.429-24.034c-0.468-13.505,0.52-27.155,2.938-40.572c0.569-3.154-0.885-6.328-3.644-7.958
			l-47.222-27.9l22.291-52.561l52.928,14.562c3.091,0.85,6.385-0.314,8.258-2.917c12.692-17.657,28.182-32.895,46.038-45.291
			c2.633-1.828,3.851-5.101,3.052-8.205l-13.669-53.153l52.926-21.406l27.137,47.718c1.584,2.784,4.731,4.293,7.894,3.775
			c8.19-1.333,16.279-2.15,24.033-2.429c13.504-0.466,27.151,0.521,40.56,2.939c3.156,0.566,6.328-0.884,7.959-3.642l27.91-47.224
			l52.561,22.292l-14.561,52.928c-0.852,3.097,0.319,6.389,2.927,8.264c17.653,12.691,32.887,28.177,45.279,46.03
			c1.827,2.632,5.1,3.848,8.205,3.052l53.154-13.668l21.406,52.924l-47.717,27.128c-2.785,1.583-4.291,4.731-3.777,7.893
			c1.333,8.201,2.15,16.294,2.429,24.043c0.469,13.509-0.52,27.158-2.939,40.567c-0.569,3.153,0.886,6.324,3.644,7.954l47.223,27.91
			l-22.292,52.561l-52.928-14.562c-3.091-0.852-6.386,0.313-8.258,2.917c-12.691,17.656-28.18,32.895-46.037,45.291
			c-2.633,1.828-3.851,5.101-3.052,8.205l13.669,53.153l-52.926,21.406l-27.138-47.718c-1.583-2.784-4.731-4.294-7.892-3.776
			c-8.339,1.355-16.201,2.147-24.04,2.42c-13.489,0.475-27.133-0.509-40.555-2.929c-3.153-0.565-6.328,0.884-7.959,3.642
			l-27.912,47.223l-52.559-22.292l14.562-52.927c0.852-3.099-0.322-6.391-2.932-8.268c-5.772-4.15-11.346-8.657-16.639-13.449
			c-3.038-2.751-7.717-2.579-10.584,0.349c-3.055,3.121-2.874,8.146,0.365,11.076c4.374,3.957,8.926,7.733,13.615,11.295
			l-14.946,54.326c-1.019,3.704,0.862,7.589,4.398,9.089l64.917,27.532c3.536,1.502,7.637,0.149,9.592-3.158l28.647-48.472
			c12.786,1.967,25.724,2.736,38.531,2.279c6.802-0.236,13.609-0.832,20.669-1.811l27.853,48.978
			c1.399,2.459,3.98,3.876,6.665,3.876c0.96,0,1.935-0.181,2.872-0.561l65.363-26.436c3.562-1.44,5.507-5.295,4.551-9.015
			l-14.031-54.56c16.023-11.749,30.184-25.679,42.196-41.511l54.325,14.946c3.703,1.021,7.59-0.861,9.089-4.398l27.532-64.916
			C511.807,322.014,510.458,317.914,507.151,315.959z"/>
	</g>
</g>
<g>
	<g>
		<path d="M332.715,253.293c-0.723-20.492-9.382-39.475-24.382-53.453c-15.001-13.98-34.558-21.287-55.039-20.556
			c-20.491,0.724-39.475,9.383-53.453,24.383c-13.979,15.001-21.279,34.548-20.556,55.038c1.459,41.387,35.588,74.062,76.681,74.059
			c0.908,0,1.825-0.016,2.74-0.049C301.006,331.224,334.207,295.596,332.715,253.293z M258.166,317.397
			c-33.841,1.173-62.367-25.378-63.561-59.232c-0.578-16.4,5.264-32.043,16.452-44.047c11.185-12.004,26.378-18.935,42.778-19.514
			c0.742-0.026,1.481-0.039,2.22-0.039c15.587,0,30.366,5.81,41.828,16.491c12.005,11.186,18.935,26.38,19.514,42.779
			C318.59,287.689,292.02,316.202,258.166,317.397z"/>
	</g>
</g>
<g>
</g>
<g>
</g>
<g>
</g>
<g>
</g>
<g>
</g>
<g>
</g>
<g>
</g>
<g>
</g>
<g>
</g>
<g>
</g>
<g>
</g>
<g>
</g>
<g>
</g>
<g>
</g>
<g>
</g>
</svg>
