<?xml version="1.0"?>
<svg xmlns="http://www.w3.org/2000/svg" id="Layer_1" data-name="Layer 1" viewBox="0 0 512 512" width="512" height="512"><path d="M394,78V66a38.255,38.255,0,0,0-12.294,2.016l3.848,11.366A26.283,26.283,0,0,1,394,78Z"/><path d="M379.06,82.478l-6.819-9.958A39.033,39.033,0,0,0,355.667,104h12A26.971,26.971,0,0,1,379.06,82.478Z"/><path d="M394,168.667a64.334,64.334,0,1,0-64.333-64.334c0,.893.031,1.777.067,2.661L158.062,205.718a64.333,64.333,0,1,0,0,100.564l171.672,98.724c-.036.884-.067,1.768-.067,2.661A64.4,64.4,0,1,0,340.5,371.979l-162.3-93.334a64.205,64.205,0,0,0,0-45.29l162.3-93.334A64.32,64.32,0,0,0,394,168.667ZM394,52a52.334,52.334,0,1,1-52.333,52.333A52.393,52.393,0,0,1,394,52Zm0,303.333a52.334,52.334,0,1,1-52.333,52.334A52.393,52.393,0,0,1,394,355.333Zm-276-47A52.333,52.333,0,1,1,170.333,256,52.392,52.392,0,0,1,118,308.333Zm216.784,74.2a63.751,63.751,0,0,0-3.228,9.679L167.023,297.592a64.627,64.627,0,0,0,5.907-8.139ZM172.93,222.547a64.7,64.7,0,0,0-5.907-8.139l164.533-94.619a63.8,63.8,0,0,0,3.228,9.68Z"/></svg>
